/* XPM */
static char *ac7cc88a111743edecc08a36502f1e3b41BTOXyxQRN45q8A[] = {
/* columns rows colors chars-per-pixel */
"64 64 4 1 ",
"  c #35476E",
". c #414141",
"X c #5B5B5B",
"o c #CECACA",
/* pixels */
".....XXXXXXXXXXXXXXXXXXXXXXXXXXXXXXXXXXXXXXXXXXXXXXXXXXXXXX.....",
"....XXXXXXXXXXXXXXXXXXXXXXXXXXXXXXXXXXXXXXXXXXXXXXXXXXXXXXXX....",
"...XXXXXXXXXXXXXXXXXXXXXXXXXXXXXXXXXXXXXXXXXXXXXXXXXXXXXXXXXX...",
"..XXXXXXXXXXXXXXXXXXXXXXXXXXXXXXXXXXXXXXXXXXXXXXXXXXXXXXXXXXXX..",
".XXXXXXXX                                              XXXXXXXX.",
"XXXXXXXX                                                XXXXXXXX",
"XXXXXXX                                                  XXXXXXX",
"XXXXXX                                                    XXXXXX",
"XXXXX                                                      XXXXX",
"XXXXX                                                      XXXXX",
"XXXXX                                                      XXXXX",
"XXXXX                                                      XXXXX",
"XXXXX                                                      XXXXX",
"XXXXX                                                      XXXXX",
"XXXXX                                                      XXXXX",
"XXXXX                                                      XXXXX",
"XXXXX                                                      XXXXX",
"XXXXX                                                      XXXXX",
"XXXXX                                                      XXXXX",
"XXXXX                                                      XXXXX",
"XXXXX                                                      XXXXX",
"XXXXX                                                      XXXXX",
"XXXXX                                                      XXXXX",
"XXXXX                                                      XXXXX",
"XXXXX                                                      XXXXX",
"XXXXX                                                      XXXXX",
"XXXXX                                                      XXXXX",
"XXXXX                                                      XXXXX",
"XXXXX                                                      XXXXX",
"XXXXX                                                      XXXXX",
"XXXXX                                                      XXXXX",
"XXXXX                                                      XXXXX",
"XXXXX                                                      XXXXX",
"XXXXX                                                      XXXXX",
"XXXXX                                                      XXXXX",
"XXXXX                                                      XXXXX",
"XXXXX                                                      XXXXX",
"XXXXX                                                      XXXXX",
"XXXXX                                                      XXXXX",
"XXXXX                                                      XXXXX",
"XXXXX                                                      XXXXX",
"XXXXX                                                      XXXXX",
"XXXXX                                                      XXXXX",
"XXXXX                                                      XXXXX",
"XXXXX                                                      XXXXX",
"XXXXX                                                      XXXXX",
"XXXXX                                                      XXXXX",
"XXXXX                                                      XXXXX",
"XXXXX                                                      XXXXX",
"XXXXX                                                      XXXXX",
"XXXXX                                                      XXXXX",
"XXXXX                                                 o    XXXXX",
"XXXXX                                                oo    XXXXX",
"XXXXX                                                o     XXXXX",
"XXXXX                                               oo     XXXXX",
"XXXXX                                             ooo      XXXXX",
"XXXXXX                                           oo       XXXXXX",
"XXXXXXX                                                  XXXXXXX",
"XXXXXXXX                                                XXXXXXXX",
".XXXXXXXX                                              XXXXXXXX.",
"..XXXXXXXXXXXXXXXXXXXXXXXXXXXXXXXXXXXXXXXXXXXXXXXXXXXXXXXXXXXX..",
"...XXXXXXXXXXXXXXXXXXXXXXXXXXXXXXXXXXXXXXXXXXXXXXXXXXXXXXXXXX...",
"....XXXXXXXXXXXXXXXXXXXXXXXXXXXXXXXXXXXXXXXXXXXXXXXXXXXXXXXX....",
".....XXXXXXXXXXXXXXXXXXXXXXXXXXXXXXXXXXXXXXXXXXXXXXXXXXXXXX....."
};
