/* XPM */
static char *de74a29517e643ead66cf6b07c18eaads1M5GWQCE2jlbjiS[] = {
/* columns rows colors chars-per-pixel */
"64 64 11 1 ",
"  c #35476E",
". c #414141",
"X c #5B5B5B",
"o c #FF9200",
"O c #E48A12",
"+ c #DFD512",
"@ c #CDC52E",
"# c #F6EC2B",
"$ c #FFF982",
"% c #F6F2A4",
"& c #CECACA",
/* pixels */
".....XXXXXXXXXXXXXXXXXXXXXXXXXXXXXXXXXXXXXXXXXXXXXXXXXXXXXX.....",
"....XXXXXXXXXXXXXXXXXXXXXXXXXXXXXXXXXXXXXXXXXXXXXXXXXXXXXXXX....",
"...XXXXXXXXXXXXXXXXXXXXXXXXXXXXXXXXXXXXXXXXXXXXXXXXXXXXXXXXXX...",
"..XXXXXXXXXXXXXXXXXXXXXXXXXXXXXXXXXXXXXXXXXXXXXXXXXXXXXXXXXXXX..",
".XXXXXXXXXXXXXXXXXXXXXXXXXXXXXXXXXXXXXXXXXXXXXXXXXXXXXXXXXXXXXX.",
"XXXXXXXXX                                              XXXXXXXXX",
"XXXXXXXX                                                XXXXXXXX",
"XXXXXXX                                                  XXXXXXX",
"XXXXXX                                                    XXXXXX",
"XXXXX                                                      XXXXX",
"XXXXX                                                      XXXXX",
"XXXXX                                                      XXXXX",
"XXXXX                                                      XXXXX",
"XXXXX                       @@@@@@@@                       XXXXX",
"XXXXX                    @@@########@@                     XXXXX",
"XXXXX                   @###############@                  XXXXX",
"XXXXX                 @@#################@@                XXXXX",
"XXXXX               @@#####################+               XXXXX",
"XXXXX              @#########OOOOOO#########+              XXXXX",
"XXXXX             @######OOoooooooooooo######@             XXXXX",
"XXXXX             @#####Oooooooooooooooo######@            XXXXX",
"XXXXX            @#####Ooooooooo$oooooooo#####@            XXXXX",
"XXXXX           @#####Ooooooo$o$$oo$oooooo#####@           XXXXX",
"XXXXX          @#####Oo%%oooo$$$$$$$$ooooooo####@          XXXXX",
"XXXXX          @####Ooo%%ooo$$o$$oo$oooooooo#####          XXXXX",
"XXXXX          ####OOoooooo$$$o$$oo$ooooooooo####          XXXXX",
"XXXXX          ####Ooooooo$$o$o$$oo$ooooooooo####          XXXXX",
"XXXXX         @####ooooooo$oo$o$$oo$ooooooooo####@         XXXXX",
"XXXXX         @####ooooooo$oo$o$$oo$ooooooooo####@         XXXXX",
"XXXXX         @###Oooooooo$oo$o$$oo$oooooooooo####         XXXXX",
"XXXXX         @###Oooooooo$$o$o$$oo$oooooooooo####         XXXXX",
"XXXXX         @###Oooooooooo$$o$$oo$oooooooooo####         XXXXX",
"XXXXX         @###Ooooooooooo$$$$$o$oooooooooo####         XXXXX",
"XXXXX         @###Ooooooooooo$ooo$$$$ooooooooo####         XXXXX",
"XXXXX         @###Ooooooooooo$ooo$o$$$oooooooo####         XXXXX",
"XXXXX         @###Ooooooooooo$ooo$o$oo$ooooooo####         XXXXX",
"XXXXX         @###Ooooooooooo$ooo$o$oo$ooooooo####         XXXXX",
"XXXXX         @####oooooooooo$ooo$o$oo$oooooo####          XXXXX",
"XXXXX         @####oooooooo$o$ooo$o$oo$oooooo####          XXXXX",
"XXXXX          ####ooooooooo$$ooo$o$$$ooooooo####          XXXXX",
"XXXXX          ####Ooooooooo$$$oo$o$$oooooooo####          XXXXX",
"XXXXX          #####Ooooooooo$$$$$$$oooooooo#####          XXXXX",
"XXXXX          @#####Oooooooo$ooo$o$ooooooo#####           XXXXX",
"XXXXX           @#####OOooooo$ooo$o$oooooo#####            XXXXX",
"XXXXX            @#####Oooooo$ooo$o$ooooo#####             XXXXX",
"XXXXX             @#####Ooooooooo$oooooo######             XXXXX",
"XXXXX             @######OOoooooo$ooooo######              XXXXX",
"XXXXX              @#########OOOOoo#########               XXXXX",
"XXXXX               @@#####################                XXXXX",
"XXXXX                 @##################                  XXXXX",
"XXXXX                  @################                   XXXXX",
"XXXXX                      @########                    &  XXXXX",
"XXXXX                                                  &&  XXXXX",
"XXXXX                                                  &   XXXXX",
"XXXXX                                                 &&   XXXXX",
"XXXXX                                               &&&    XXXXX",
"XXXXXX                                             &&     XXXXXX",
"XXXXXXX                                                  XXXXXXX",
"XXXXXXXX                                                XXXXXXXX",
".XXXXXXXX                                              XXXXXXXX.",
"..XXXXXXXXXXXXXXXXXXXXXXXXXXXXXXXXXXXXXXXXXXXXXXXXXXXXXXXXXXXX..",
"...XXXXXXXXXXXXXXXXXXXXXXXXXXXXXXXXXXXXXXXXXXXXXXXXXXXXXXXXXX...",
"....XXXXXXXXXXXXXXXXXXXXXXXXXXXXXXXXXXXXXXXXXXXXXXXXXXXXXXXX....",
".....XXXXXXXXXXXXXXXXXXXXXXXXXXXXXXXXXXXXXXXXXXXXXXXXXXXXXX....."
};
