/* XPM */
static char *_271535bf6804cc7aa9be117e7913455fkK5nJsDF0ttZ18Y[] = {
/* columns rows colors chars-per-pixel */
"64 64 18 1 ",
"  c #201718",
". c #163137",
"X c #35476E",
"o c #414141",
"O c #5B5B5B",
"+ c #D6747D",
"@ c #F67D89",
"# c #53BCD1",
"$ c #3DDDFF",
"% c #5FCDE4",
"& c #B6B6B6",
"* c #FFBF86",
"= c #E4BC98",
"- c #FFB2BA",
"; c #FFD2AA",
": c #86EAFF",
"> c #CECACA",
", c #FFEFEF",
/* pixels */
"oooooOOOOOOOOOOOOOOOOOOOOOOOOOOOOOOOOOOOOOOOOOOOOOOOOOOOOOOooooo",
"ooooOOOOOOOOOOOOOOOOOOOOOOOOOOOOOOOOOOOOOOOOOOOOO####OOOOOOOoooo",
"oooOOOOOOOOOOOOOOOOOOOOOOOOOOOOOOOOOOOOOOOOOOOOOO:::#OOOOOOOOooo",
"ooOOOOOOOOOOOOOOOOOOOOOOOOOOOOOOOOOOOOOOOOO####OO:::#OOOOOOOOOoo",
"oOOOOOOOOXXXXXXXXXXXXXXXXXXXXXXXXXXXXXXXXX#::::X#:::#XXOOOOOOOOo",
"OOOOOOOOXXXXXXXXXXXXXXXXXXXXXXXXXXXXXXXXX#:::$::::$:#XXXOOOOOOOO",
"OOOOOOOXXXXXXXXXXXXXXXXXXXXXXXXXXXXXXXX#:::$$$$$$$$:#XXXXOOOOOOO",
"OOOOOOXXXXXXXXXXXXXXXXXXXXXXXX#########::$$$$$$$$:$:#XXXXXOOOOOO",
"OOOOOXXXXXXXXXXXXXXXXXXXXXXX##%%%%%%%##$$$$$$::::$$:#XXXXXXOOOOO",
"OOOOOXXXXXXXXXXXXXXXXXXXXXX#%%%%:::%%%%##$$:::$$$$::#XXXXXXOOOOO",
"OOOOOXXXXXXXXXXXXXXXXXXXXXX#%::::%%%%%%%%#$$$$$::::##XXXXXXOOOOO",
"OOOOOXXXXXXXXXXXXXXXXXXXXXX#%::::%%%%%%%%#$$$$$::::##XXXXXXOOOOO",
"OOOOOXXXXXXXXXXXXXXXXXXXXX#%::%%%%%%%%%%%#$$$$$:$::#XXXXXXXOOOOO",
"OOOOOXXXXXXXXXXXXXXXXXXXXX#%:%%%%%%%%%%%%#$$$$$$$:##XXXXXXXOOOOO",
"OOOOOXXXXXXXXXXXXXXXXXXXX#%%%%%%%%%%%%%%%%#$$$:$$:#XXXXXXXXOOOOO",
"OOOOOXXXXXXXXXXXXXXXXXXXX#%%%%%%%%%%%%%%%%#$$::$$##XXXXXXXXOOOOO",
"OOOOOXXXXXXXXXXXXXXXXXXXX#%%###########%%%%$$:$$$#XXXXXXXXXOOOOO",
"OOOOOXXXXXXXXXXXXXXXXXXXX#%%.......#####%%%$$$$$:#XXXXXXXXXOOOOO",
"OOOOOXXXXXXXXXXXXXXXXXXXX###...&&.....##%%%#$$$:#XXXXXXXXXXOOOOO",
"OOOOOXXXXXXXXXXXXXXXXXXXX###...&&.....##%%%#$$$:#XXXXXXXXXXOOOOO",
"OOOOOXXXXXXXXXXXXXXXXXXXX#=##...&......##%%#$$:##XXXXXXXXXXOOOOO",
"OOOOOXXXXXXXXXXXXXXXXXXXX#;=###.........##%#::#XXXXXXXXXXXXOOOOO",
"OOOOOXXXXXXXXXXXXXXXXXXXX#;;==#################XXXXXXXXXXXXOOOOO",
"OOOOOXXXXXXXXXXXXXXXXXXXX##;;;=====########XXXXXXXXXXXXXXXXOOOOO",
"OOOOOXXXXXXXXXXXXXXXXXXXXX#;;;;;;;;===#####XXXXXXXXXXXXXXXXOOOOO",
"OOOOOXXXXXXXXXXXXXXXXXXXX###;;*;;;;;;;####XXXXXXXXXXXXXXXXXOOOOO",
"OOOOOXXXXXXXXXXXXXXXXXXX##%##;*****;;;####XXXXXXXXXXXXXXXXXOOOOO",
"OOOOOXXXXXXXXXXXXXXXXXXX##%##;*****;;;####XXXXXXXXXXXXXXXXXOOOOO",
"OOOOOXXXXXXXXXXXXXXXXXX#%%%%##;;;;;;;;#XXXXXXXXXXXXXXXXXXXXOOOOO",
"OOOOOXXXXXXXXXXXXXXXXX##%%##############XXXXXXXXXXXXXXXXXXXOOOOO",
"OOOOOXXXXXXXXXXXXXXX###%%%%%%%####%%%%%%##XXXXXXXXXXXXXXXXXOOOOO",
"OOOOOXXXXXXXXXXXXXX##%#%%%%%%%%%%%%%%%%%%#XXXXXXXXXXXXXXXXXOOOOO",
"OOOOOXXXXXXXXXXXXXX#%%#%%%%######%%%%%%%%##XXXXXXXXXXXXXXXXOOOOO",
"OOOOOXXXXXXXXXXXXXX#%%#%%%#$$:$$#%%%%#%%%%#XXXXXXXXXXXXXXXXOOOOO",
"OOOOOXXXXXXXXXXXXXX#%%#%%%#$$:$$##%%%#%%%%#XXXXXXXXXXXXXXXXOOOOO",
"OOOOOXXXXXXXXXXXXXX#%%#%%#$$::$$$##%%##%%%#XXXXXXXXXXXXXXXXOOOOO",
"OOOOOXXXXXXXXXXXXXX#%%#%#$$:$$$:$$#%%###%%#XXXXXXXXXXXXXXXXOOOOO",
"OOOOOXXXXXXXXXXXXXX#%%#%##$:$$::$$$##%##%##XXXXXXXXXXXXXXXXOOOOO",
"OOOOOXXXXXXXXXXXXXX#%##%%##$$::$$$$##%#####XXXXXXXXXXXXXXXXOOOOO",
"OOOOOXXXXXXXXXXXXXX#%##%%%##$$$$$##%%%#X###XXXXXXXXXXXXXXXXOOOOO",
"OOOOOXXXXXXXXXXXXXX####%%%%%######%%%%#X##- XXXXXXXXXXXXXXXOOOOO",
"OOOOOXXXXXXXXXXXXXXXXX#%%%%%%%%%%%%%%##X#--- XXXXXXXXXXXXXXOOOOO",
"OOOOOXXXXXXXXXXXXXXXXX#%%%%%%%%%%%%%%##X#--- XXXXXXXXXXXXXXOOOOO",
"OOOOOXXXXXXXXXXXXXXXXXX#%%%%%%%%%%%%%#XX#-@- XXXXXXXXXXXXXXOOOOO",
"OOOOOXXXXXXXXXXXXXXXXXX#%%%%%%%%%%%%%#XXX@@ XXXXXXXXXXXXXXXOOOOO",
"OOOOOXXXXXXXXXXXXXXXXXX#%%%%%%%%%%%%%#XXX@@- XXXXXXXXXXXXXXOOOOO",
"OOOOOXXXXXXXXXXXXXXXXXXX#%%%%%%%%%%###XXX-@- XXXXXXXXXXXXXXOOOOO",
"OOOOOXXXXXXXXXXXXXXXXXXX###%%%%%%%%##XXXX--  XXXXXXXXXXXXXXOOOOO",
"OOOOOXXXXXXXXXXXXXXXXXXXXX#########XXXXXX-+ XXXXXXXXXXXXXXXOOOOO",
"OOOOOXXXXXXXXXXXXXXXXXXXX##%%%%%%##XXXXXXX+ XXXXXXXXXXXXXXXOOOOO",
"OOOOOXXXXXXXXXXXXXXXXXXXX##%%%%%%##XXXXXXX+ XXXXXXXXXXXXXXXOOOOO",
"OOOOOXXXXXXXXXXXXXXXXXXX##%%%%%%##%XXXXXXXXXXXXXXXXXXX>XXXXOOOOO",
"OOOOOXXXXXXXXXXXXXXXXXX##%%%%%%##%%##XXXXXXXXXXXXXXXX>>XXXXOOOOO",
"OOOOOXXXXXXXXXXXXXXXXX##%%%%%%##%%%###XXXXXXXXXXXXXXX>XXXXXOOOOO",
"OOOOOXXXXXXXXXXXXXXXXX#%%%%%###%%%%%%##XXXXXXXXXXXXX>>XXXXXOOOOO",
"OOOOOXXXXXXXXXXXXXXXX#%%%%%%#%%%%%%%%%##XXXXXXXXXX>>>XXXXXXOOOOO",
"OOOOOOXXXXXXXXXXXXXXX####################XXXXXXXX>>XXXXXXXOOOOOO",
"OOOOOOOXXXXXXXXXXXXXX####################XXXXXXXXXXXXXXXXOOOOOOO",
"OOOOOOOOXXXXXXXXXXXXX$$$$$$$XXXX$$$$$$XXXXXXXXXXXXXXXXXXOOOOOOOO",
"oOOOOOOOOXXXXXXXXXXXX,,,,,,:XXXX::::::XXXXXXXXXXXXXXXXXOOOOOOOOo",
"ooOOOOOOOOOOOOOOOOOOOOOOOOOOOOOOOOOOOOOOOOOOOOOOOOOOOOOOOOOOOOoo",
"oooOOOOOOOOOOOOOOOOOOOOOOOOOOOOOOOOOOOOOOOOOOOOOOOOOOOOOOOOOOooo",
"ooooOOOOOOOOOOOOOOOOOOOOOOOOOOOOOOOOOOOOOOOOOOOOOOOOOOOOOOOOoooo",
"oooooOOOOOOOOOOOOOOOOOOOOOOOOOOOOOOOOOOOOOOOOOOOOOOOOOOOOOOooooo"
};
