/* XPM */
static char *result[] = {
/* columns rows colors chars-per-pixel */
"64 64 15 1 ",
"  c #163137",
". c #1B3D44",
"X c #35476E",
"o c #414141",
"O c #5B5B5B",
"+ c #53BCD1",
"@ c #3DDDFF",
"# c #5FCDE4",
"$ c #B6B6B6",
"% c #FFBF86",
"& c #E4BC98",
"* c #FFD2AA",
"= c #86EAFF",
"- c #CECACA",
"; c white",
/* pixels */
"oooooOOOOOOOOOOOOOOOOOO====OO==O===+OOOOOOOOOOOOOOOOOOOOOOOooooo",
"ooooOOOOOOOOOOOOOOOOOOO=@@=======@=+OOOOOOOOOOOOOOOOOOOOOOOOoooo",
"oooOOOOOOOOOOOOOOOOOOOO=@@@@@@@@@@==+OOOOOOOOOOOOOOOOOOOOOOOOooo",
"ooOOOOOOOOOOOOOOOOOOOO=@@=@@@@@@@@@=+OOOOOOOOOOOOOOOOOOOOOOOOOoo",
"oOOOOOOOOXXXXXXXXXXXX==@===@@@@@@=@==+XXXXXXXXXXXXXXXXXOOOOOOOOo",
"OOOOOOOOXXXXXXXXXXXXX=@@=@=@@@=@@==@=+XXXXXXXXXXXXXXXXXXOOOOOOOO",
"OOOOOOOXXXXXXXXXXXXX==@=@@=@@@=@@@=@==+XXXXXXXXXXXXXXXXXXOOOOOOO",
"OOOOOOXXXXXXXXXXXXXX=@=+++++++++++@=@=+XXXXXXXXXXXXXXXXXXXOOOOOO",
"OOOOOXXXXXXXXXXXXX+=++++.........+++@==+XXXXXXXXXXXXXXXXXXXOOOOO",
"OOOOOXXXXXXXXXXXXX+++....       ...+++=+XXXXXXXXXXXXXXXXXXXOOOOO",
"OOOOOXXXXXXXXXXXXX++..            ....++XXXXXXXXXXXXXXXXXXXOOOOO",
"OOOOOXXXXXXXXXXXXX++     $$    $$     +++XXXXXXXXXXXXXXXXXXOOOOO",
"OOOOOXXXXXXXXXXXXX++      $    $      +++XXXXXXXXXXXXXXXXXXOOOOO",
"OOOOOXXXXXXXXXXXX+++&                &*++XXXXXXXXXXXXXXXXXXOOOOO",
"OOOOOXXXXXXXXXXXX++**&              &**++XXXXXXXXXXXXXXXXXXOOOOO",
"OOOOOXXXXXXXXXXXX++***&&&&&&&&&&&&&&****++XXXXXXXXXXXXXXXXXOOOOO",
"OOOOOXXXXXXXXXXXX++*********************++XXXXXXXXXXXXXXXXXOOOOO",
"OOOOOXXXXXXXXXXXX+++****%%%%%%%%%%*****+++XXXXXXXXXXXXXXXXXOOOOO",
"OOOOOXXXXXXXXXXXX++++*****************++++XXXXXXXXXXXXXXXXXOOOOO",
"OOOOOXXXXXXXXXXXX++++++++++++++++++++++##++XXXXXXXXXXXXXXXXOOOOO",
"OOOOOXXXXXXXXXXXX++#++#######+#####++######XXXXXXXXXXXXXXXXOOOOO",
"OOOOOXXXXXXXXXXXX##########################+XXXXXXXXXXXXXXXOOOOO",
"OOOOOXXXXXXXXXXX+#############+++##########++XXXXXXXXXXXXXXOOOOO",
"OOOOOXXXXXXXXXX++#########++++++++++########+XXXXXXXXXXXXXXOOOOO",
"OOOOOXXXXXXXXX+++#######+++@@@@@@@@++#######++XXXXXXXXXXXXXOOOOO",
"OOOOOXXXXXXXXX+++#######+@@@@@@@@@@@++######++XXXXXXXXXXXXXOOOOO",
"OOOOOXXXXXXXX++++#######+@@@@===@@@@@@+#####++XXXXXXXXXXXXXOOOOO",
"OOOOOXXXXXXXX++++#######+@@==@@====@@@+###+#++XXXXXXXXXXXXXOOOOO",
"OOOOOXXXXXXXX++++###+###+@@@@=@@@@==@@+##++#++XXXXXXXXXXXXXOOOOO",
"OOOOOXXXXXXXX+##+###+###++@@@@=@@@@@@@+##+#+++XXXXXXXXXXXXXOOOOO",
"OOOOOXXXXXXXX+##+###+####++@@@@@@@@@@@+##+#++++XXXXXXXXXXXXOOOOO",
"OOOOOXXXXXXXX+######+#####+@@@@@@+@@@@+#++#+##+XXXXXXXXXXXXOOOOO",
"OOOOOXXXXXXXX++#####+#####+@@@@+++++++##+##+##+XXXXXXXXXXXXOOOOO",
"OOOOOXXXXXXXXX+##+##++####++@@++###++###+####+XXXXXXXXXXXXXOOOOO",
"OOOOOXXXXXXXXX+##+###+#####+++#########++####+XXXXXXXXXXXXXOOOOO",
"OOOOOXXXXXXXXXX+#++##++###################++++XXXXXXXXXXXXXOOOOO",
"OOOOOXXXXXXXXXX+##+###++#################+++XXXXXXXXXXXXXXXOOOOO",
"OOOOOXXXXXXXXXX++#++####++##############+++XXXXXXXXXXXXXXXXOOOOO",
"OOOOOXXXXXXXXXXX+++++####+++############+XXXXXXXXXXXXXXXXXXOOOOO",
"OOOOOXXXXXXXXXXX++++++################++XXXXXXXXXXXXXXXXXXXOOOOO",
"OOOOOXXXXXXXXXXXX++XX++++++++++++++++++XXXXXXXXXXXXXXXXXXXXOOOOO",
"OOOOOXXXXXXXXXXXXXXXXX+###############+XXXXXXXXXXXXXXXXXXXXOOOOO",
"OOOOOXXXXXXXXXXXXXXXXX+###############+XXXXXXXXXXXXXXXXXXXXOOOOO",
"OOOOOXXXXXXXXXXXXXXXX++###############+XXXXXXXXXXXXXXXXXXXXOOOOO",
"OOOOOXXXXXXXXXXXXXXXX+################+XXXXXXXXXXXXXXXXXXXXOOOOO",
"OOOOOXXXXXXXXXXXXXXXX+###+#########+##++XXXXXXXXXXXXXXXXXXXOOOOO",
"OOOOOXXXXXXXXXXXXXXX++###+#########+###+XXXXXXXXXXXXXXXXXXXOOOOO",
"OOOOOXXXXXXXXXXXXXXX+###++#########+###++XXXXXXXXXXXXXXXXXXOOOOO",
"OOOOOXXXXXXXXXXXXXXX+###+##########+####+XXXXXXXXXXXXXXXXXXOOOOO",
"OOOOOXXXXXXXXXXXXXX++##++##########+####+XXXXXXXXXXXXXXXXXXOOOOO",
"OOOOOXXXXXXXXXXXXXX+###+###########+####++XXXXXXXXXXXXXXXXXOOOOO",
"OOOOOXXXXXXXXXXXXXX+###+###########+#####++XXXXXXXXXXX-XXXXOOOOO",
"OOOOOXXXXXXXXXXXXX+###++######+####++####++XXXXXXXXXX--XXXXOOOOO",
"OOOOOXXXXXXXXXXXXX+###+#######+#####++###++XXXXXXXXXX-XXXXXOOOOO",
"OOOOOXXXXXXXXXXXXX+##################+###+XXXXXXXXXX--XXXXXOOOOO",
"OOOOOXXXXXXXXXXXXX+######################+XXXXXXXX---XXXXXXOOOOO",
"OOOOOOXXXXXXXXXXX+++++++++++++++++++++++++XXXXXXX--XXXXXXXOOOOOO",
"OOOOOOOXXXXXXXXXXXXXX+++++++XXXXX+++++++XXXXXXXXXXXXXXXXXOOOOOOO",
"OOOOOOOOXXXXXXXXXXXXX@@@@@@@XXXXX+++++++XXXXXXXXXXXXXXXXOOOOOOOO",
"oOOOOOOOOXXXXXXXXXXXX=======XXXXX@@@@@@@XXXXXXXXXXXXXXXOOOOOOOOo",
"ooOOOOOOOOOOOOOOOOOOOOOOOOOOOOOOO=;;;;;;OOOOOOOOOOOOOOOOOOOOOOoo",
"oooOOOOOOOOOOOOOOOOOOOOOOOOOOOOOOOOOOOOOOOOOOOOOOOOOOOOOOOOOOooo",
"ooooOOOOOOOOOOOOOOOOOOOOOOOOOOOOOOOOOOOOOOOOOOOOOOOOOOOOOOOOoooo",
"oooooOOOOOOOOOOOOOOOOOOOOOOOOOOOOOOOOOOOOOOOOOOOOOOOOOOOOOOooooo"
};
