/* XPM */
static char *_d313dc8724a4724ba003dbb032621aaDbTPJ8iVKtJrm7zb[] = {
/* columns rows colors chars-per-pixel */
"64 64 18 1 ",
"  c #201718",
". c #163137",
"X c #35476E",
"o c #414141",
"O c #5B5B5B",
"+ c #D6747D",
"@ c #F67D89",
"# c #53BCD1",
"$ c #3DDDFF",
"% c #5FCDE4",
"& c #B6B6B6",
"* c #FFBF86",
"= c #E4BC98",
"- c #FFB2BA",
"; c #FFD2AA",
": c #86EAFF",
"> c #CECACA",
", c #FFEFEF",
/* pixels */
"oooooOOOOOOOOOOOOOOOOOOOOOOOOOOOOOOOOOOOOOOOOOOOOOOOOOOOOOOooooo",
"ooooOOOOO###OOOOOOOOOOOOOOOOOOOOOOOOOOOOOOOOOOOOOOOOOOOOOOOOoooo",
"oooOOOOOO#::OOOOOOOOOOOOOOOOOOOOOOOOOOOOOOOOOOOOOOOOOOOOOOOOOooo",
"ooOOOOOOO#::#OOO:::#OOOOOOOOOOOOOOOOOOOOOOOOOOOOOOOOOOOOOOOOOOoo",
"oOOOOOOOO#:$:::::$:::#XXXXXXXXXXXXXXXXXXXXXXXXXXXXXXXXXOOOOOOOOo",
"OOOOOOOOX#:$:::::$:::#XXXXXXXXXXXXXXXXXXXXXXXXXXXXXXXXXXOOOOOOOO",
"OOOOOOOXX#:$$$$$$$$$:::#XXXXXXXXXXXXXXXXXXXXXXXXXXXXXXXXXOOOOOOO",
"OOOOOOXXX#:$:$$$$$$$$$::########XXXXXXXXXXXXXXXXXXXXXXXXXXOOOOOO",
"OOOOOXXXX#:$::::::$$$$$$#%%%%%%%##XXXXXXXXXXXXXXXXXXXXXXXXXOOOOO",
"OOOOOXXXX#::$$$$$:::$$##%%%:::%%%%##XXXXXXXXXXXXXXXXXXXXXXXOOOOO",
"OOOOOXXXX##:$::$$$$:$#%%%%%%%%:::%%#XXXXXXXXXXXXXXXXXXXXXXXOOOOO",
"OOOOOXXXXX#:$$::$$$$$#%%%%%%%%%%::%%XXXXXXXXXXXXXXXXXXXXXXXOOOOO",
"OOOOOXXXXX#:$$::$$$$$#%%%%%%%%%%::%%XXXXXXXXXXXXXXXXXXXXXXXOOOOO",
"OOOOOXXXXX##$$$:$$$$$#%%%%%%%%%%%::%XXXXXXXXXXXXXXXXXXXXXXXOOOOO",
"OOOOOXXXXXX#:$$::$$$#%%%%%%%%%%%%%%%#XXXXXXXXXXXXXXXXXXXXXXOOOOO",
"OOOOOXXXXXX#:$$$::$$#%%%%%%%%%%%%%%%#XXXXXXXXXXXXXXXXXXXXXXOOOOO",
"OOOOOXXXXXXX:$$$$:$#%%%%##########%%#XXXXXXXXXXXXXXXXXXXXXXOOOOO",
"OOOOOXXXXXXX#:$$$$$#%%%###........#%#XXXXXXXXXXXXXXXXXXXXXXOOOOO",
"OOOOOXXXXXXX##::$$##%%%#......&....##XXXXXXXXXXXXXXXXXXXXXXOOOOO",
"OOOOOXXXXXXXX##::$#%%%##.........####XXXXXXXXXXXXXXXXXXXXXXOOOOO",
"OOOOOXXXXXXXX##::$#%%%##.........####XXXXXXXXXXXXXXXXXXXXXXOOOOO",
"OOOOOXXXXXXXXXX##:##%##........###==#XXXXXXXXXXXXXXXXXXXXXXOOOOO",
"OOOOOXXXXXXXXXXX################==;;#XXXXXXXXXXXXXXXXXXXXXXOOOOO",
"OOOOOXXXXXXXXXXXXXX#########====;;;;#XXXXXXXXXXXXXXXXXXXXXXOOOOO",
"OOOOOXXXXXXXXXXXXXXX####====;;;;;;;;XXXXXXXXXXXXXXXXXXXXXXXOOOOO",
"OOOOOXXXXXXXXXXXXXXXX###;;;;;;;*;;;##XXXXXXXXXXXXXXXXXXXXXXOOOOO",
"OOOOOXXXXXXXXXXXXXXXX###;;;;****;######XXXXXXXXXXXXXXXXXXXXOOOOO",
"OOOOOXXXXXXXXXXXXXXXX###;;;;****;######XXXXXXXXXXXXXXXXXXXXOOOOO",
"OOOOOXXXXXXXXXXXXXXXXXXX;;;;;;;;##%%%%##XXXXXXXXXXXXXXXXXXXOOOOO",
"OOOOOXXXXXXXXXXXXXXXXXX#%%%%%%%#####%%%###XXXXXXXXXXXXXXXXXOOOOO",
"OOOOOXXXXXXXXXXXXXXXX##%%%%%%###%%%%%%%%###XXXXXXXXXXXXXXXXOOOOO",
"OOOOOXXXXXXXXXXXXXXXX#%%%%%%%%%%%%%%%%%%####XXXXXXXXXXXXXXXOOOOO",
"OOOOOXXXXXXXXXXXXXXX##%%%%%%%%######%%%%%#%#XXXXXXXXXXXXXXXOOOOO",
"OOOOOXXXXXXXXXXXXXXX#%%%#%%%##$$:$$$%%%%%#%#XXXXXXXXXXXXXXXOOOOO",
"OOOOOXXXXXXXXXXXXXXX#%%%#%%%##$$:::$#%%%%#%#XXXXXXXXXXXXXXXOOOOO",
"OOOOOXXXXXXXXXXXXXXX#%%%#%%%##$$:::$#%%%%#%#XXXXXXXXXXXXXXXOOOOO",
"OOOOOXXXXXXXXXXXXXXX#%%##%%##$:$$$::$#%%%#%#XXXXXXXXXXXXXXXOOOOO",
"OOOOOXXXXXXXXXXXXXXX##%#%%##$$::$$$:##%%%#%#XXXXXXXXXXXXXXXOOOOO",
"OOOOOXXXXXXXXXXXXXX#####%%##$$$::$$$#%%%##%#XXXXXXXXXXXXXXXOOOOO",
"OOOOOXXXXXXXXXXXXXX-###X%%%###$$$$##%%%%#X%#XXXXXXXXXXXXXXXOOOOO",
"OOOOOXXXXXXXXXXXXX --##X%%%%%######%%%%%#X##XXXXXXXXXXXXXXXOOOOO",
"OOOOOXXXXXXXXXXXXX-@--#X#%%%%%%%%%%%%%%%#XXXXXXXXXXXXXXXXXXOOOOO",
"OOOOOXXXXXXXXXXXXX-@--#X#%%%%%%%%%%%%%%%#XXXXXXXXXXXXXXXXXXOOOOO",
"OOOOOXXXXXXXXXXXXX-@@-#X#%%%%%%%%%%%%%%#XXXXXXXXXXXXXXXXXXXOOOOO",
"OOOOOXXXXXXXXXXXXX -@@XX#%%%%%%%%%%%%%%#XXXXXXXXXXXXXXXXXXXOOOOO",
"OOOOOXXXXXXXXXXXXX--@@XX#%%%%%%%%%%%%%##XXXXXXXXXXXXXXXXXXXOOOOO",
"OOOOOXXXXXXXXXXXXX--@-XX##%%%%%%%%%%%##XXXXXXXXXXXXXXXXXXXXOOOOO",
"OOOOOXXXXXXXXXXXXX ---XXX###%%%%%%%%##XXXXXXXXXXXXXXXXXXXXXOOOOO",
"OOOOOXXXXXXXXXXXXX ++-XXXXX#########XXXXXXXXXXXXXXXXXXXXXXXOOOOO",
"OOOOOXXXXXXXXXXXXX ++XXXXXX###%%%%%%#XXXXXXXXXXXXXXXXXXXXXXOOOOO",
"OOOOOXXXXXXXXXXXXX ++XXXXXX###%%%%%%#XXXXXXXXXXXXXXXXXXXXXXOOOOO",
"OOOOOXXXXXXXXXXXXXXXXXXXXX##%#%%%%%%##XXXXXXXXXXXXXXXX>XXXXOOOOO",
"OOOOOXXXXXXXXXXXXXXXXXXXX##%%%#%%%%%%###XXXXXXXXXXXXX>>XXXXOOOOO",
"OOOOOXXXXXXXXXXXXXXXXXXX##%%%%##%%%%%%%##XXXXXXXXXXXX>XXXXXOOOOO",
"OOOOOXXXXXXXXXXXXXXXXXXX#%%%%%%###%%%%%%##XXXXXXXXXX>>XXXXXOOOOO",
"OOOOOXXXXXXXXXXXXXXXXXX#%%%%%%%%%#%%%%%%%#XXXXXXXX>>>XXXXXXOOOOO",
"OOOOOOXXXXXXXXXXXXXXXX####################XXXXXXX>>XXXXXXXOOOOOO",
"OOOOOOOXXXXXXXXXXXXXXX####################XXXXXXXXXXXXXXXOOOOOOO",
"OOOOOOOOXXXXXXXXXXXXXXXX$$$$$$XXXXX$$$$$$$XXXXXXXXXXXXXXOOOOOOOO",
"oOOOOOOOOXXXXXXXXXXXXXXX::::::XXXXX:,,,,,,XXXXXXXXXXXXXOOOOOOOOo",
"ooOOOOOOOOOOOOOOOOOOOOOOOOOOOOOOOOOOOOOOOOOOOOOOOOOOOOOOOOOOOOoo",
"oooOOOOOOOOOOOOOOOOOOOOOOOOOOOOOOOOOOOOOOOOOOOOOOOOOOOOOOOOOOooo",
"ooooOOOOOOOOOOOOOOOOOOOOOOOOOOOOOOOOOOOOOOOOOOOOOOOOOOOOOOOOoooo",
"oooooOOOOOOOOOOOOOOOOOOOOOOOOOOOOOOOOOOOOOOOOOOOOOOOOOOOOOOooooo"
};
