/* XPM */
static char *_386e26a66664d439406f0e6d009aa6aBrDKszSncB2ZWCH2[] = {
/* columns rows colors chars-per-pixel */
"64 64 17 1 ",
"  c #163137",
". c #35476E",
"X c #414141",
"o c #5B5B5B",
"O c #D6747D",
"+ c #F67D89",
"@ c #53BCD1",
"# c #3DDDFF",
"$ c #5FCDE4",
"% c #B6B6B6",
"& c #FFBF86",
"* c #E4BC98",
"= c #FFB2BA",
"- c #FFD2AA",
"; c #86EAFF",
": c #CECACA",
"> c white",
/* pixels */
"XXXXXooooooooooooooooooooooooooooooooooooooooooooooooooooooXXXXX",
"XXXXooooo@@@ooooooooooooooooooooooooooooooooooooooooooooooooXXXX",
"XXXoooooo@;;oooooooooooooooooooooooooooooooooooooooooooooooooXXX",
"XXooooooo@;;@ooo;;;@ooooooooooooooooooooooooooooooooooooooooooXX",
"Xoooooooo@;#;;;;;#;;;@.................................ooooooooX",
"oooooooo.@;#;;;;;#;;;@..................................oooooooo",
"ooooooo..@;#########;;;@.................................ooooooo",
"oooooo...@;#;#########;;@@@@@@@@..........................oooooo",
"ooooo....@;#;;;;;;######@$$$$$$$@@.........................ooooo",
"ooooo....@;;#####;;;##@@$$$;;;$$$$@@.......................ooooo",
"ooooo....@@;#;;####;#@$$$$$$$$;;;$$@.......................ooooo",
"ooooo.....@;##;;#####@$$$$$$$$$$;;$$.......................ooooo",
"ooooo.....@;##;;#####@$$$$$$$$$$;;$$.......................ooooo",
"ooooo.....@@###;#####@$$$$$$$$$$$;;$.......................ooooo",
"ooooo......@;##;;###@$$$$$$$$$$$$$$$@......................ooooo",
"ooooo......@;###;;##@$$$$$$$$$$$$$$$@......................ooooo",
"ooooo.......;####;#@$$$$@@@@@@@@@@$$@......................ooooo",
"ooooo.......@;#####@$$$@@@        @$@......................ooooo",
"ooooo.......@@;;##@@$$$@      %    @@......................ooooo",
"ooooo........@@;;#@$$$@@         @@@@......................ooooo",
"ooooo........@@;;#@$$$@@         @@@@......................ooooo",
"ooooo..........@@;@@$@@        @@@**@......................ooooo",
"ooooo...........@@@@@@@@@@@@@@@@**--@......................ooooo",
"ooooo..............@@@@@@@@@****----@......................ooooo",
"ooooo...............@@@@****--------.......................ooooo",
"ooooo................@@@-------&---@@......................ooooo",
"ooooo................@@@----&&&&-@@@@@@....................ooooo",
"ooooo................@@@----&&&&-@@@@@@....................ooooo",
"ooooo...................--------@@$$$$@@...................ooooo",
"ooooo..................@$$$$$$$@@@@@$$$@@..................ooooo",
"ooooo................@@@$$$$$@@@$$$$$$$$@@.................ooooo",
"ooooo................@@@$$$$$$$$$$$$$$$$@@.................ooooo",
"ooooo...............@@@@@$$$$$@@@@@@$$$$$@.................ooooo",
"ooooo...............@@@@@@$$@@##;###$$$$$@.................ooooo",
"ooooo...............@@@@@@$$@@##;;;#@$$$$@.................ooooo",
"ooooo................@@@@@@$@@##;;;#@$$$$@.................ooooo",
"ooooo.................@@@@@@@#;###;;#@$$$@.................ooooo",
"ooooo.................@@@@@@@#;;###;@@$$$@.................ooooo",
"ooooo...................@@@@@@#;;###@$$$@@.................ooooo",
"ooooo...................@@@=@@####@@$$$$@..................ooooo",
"ooooo...................@@@==@=@@@@$$$$$@..................ooooo",
"ooooo...................@$$=+==$$$$$$$$$@..................ooooo",
"ooooo...................@$$=+=+=$$$$$$$$@..................ooooo",
"ooooo...................@$$==++++$$$$$$@...................ooooo",
"ooooo...................@$$$$==++$$$$$$@...................ooooo",
"ooooo...................@$$$===+==$$$$@@...................ooooo",
"ooooo...................@@$$$=====$$$@@....................ooooo",
"ooooo....................@@@@@@OOO@@@@.....................ooooo",
"ooooo......................@@@@@OO@@.......................ooooo",
"ooooo......................@$$$$OO@@@......................ooooo",
"ooooo......................@@$$$$$$@@......................ooooo",
"ooooo.....................@@$@$$$$$$@@................:....ooooo",
"ooooo....................@@$$$@$$$$$$@@@.............::....ooooo",
"ooooo...................@@$$$$@@$$$$$$$@@............:.....ooooo",
"ooooo...................@$$$$$$@@@$$$$$$@@..........::.....ooooo",
"ooooo..................@$$$$$$$$$@$$$$$$$@........:::......ooooo",
"oooooo................@@@@@@@@@@@@@@@@@@@@.......::.......oooooo",
"ooooooo...............@@@@@@@@@@@@@@@@@@@@...............ooooooo",
"oooooooo................######.....#######..............oooooooo",
"Xoooooooo...............;>>>>>.....;;;;;;;.............ooooooooX",
"XXooooooooooooooooooooooooooooooooooooooooooooooooooooooooooooXX",
"XXXooooooooooooooooooooooooooooooooooooooooooooooooooooooooooXXX",
"XXXXooooooooooooooooooooooooooooooooooooooooooooooooooooooooXXXX",
"XXXXXooooooooooooooooooooooooooooooooooooooooooooooooooooooXXXXX"
};
