/* XPM */
static char *result[] = {
/* columns rows colors chars-per-pixel */
"64 64 12 1 ",
"  c #35476E",
". c #414141",
"X c #5B5B5B",
"o c #D6747D",
"O c #F67D89",
"+ c #53BCD1",
"@ c #3DDDFF",
"# c #5FCDE4",
"$ c #FFB2BA",
"% c #86EAFF",
"& c #CECACA",
"* c white",
/* pixels */
".....XXXXXXXXXXXXXXXXXX%%%%XX%%X%%%+XXXXXXXXXXXXXXXXXXXXXXX.....",
"....XXXXXXXXXXXXXXXXXXX%@@%%%%@%%@%+XXXXXXXXXXXXXXXXXXXXXXXX....",
"...XXXXXXXXXXXXXXXXXXXX%@@@@@@@@@@%%+XXXXXXXXXXXXXXXXXXXXXXXX...",
"..XXXXXXXXXXXXXXXXXXXX%@@%@@@@%@@@@%+XXXXXXXXXXXXXXXXXXXXXXXXX..",
".XXXXXXXX            %%@%%%@@@%@@%@%%+                 XXXXXXXX.",
"XXXXXXXX             %@@%@%@@@%@@%%@%+                  XXXXXXXX",
"XXXXXXX             %%@%@@%@@@@@@@%@%%+                  XXXXXXX",
"XXXXXX              %@%%@@@@@@@@@@@%@%+                   XXXXXX",
"XXXXX              %%@@@+++++++++@@%@%%+                   XXXXX",
"XXXXX              %@++++++++++++++@@@%+                   XXXXX",
"XXXXX              %++++++++++++++++++++                   XXXXX",
"XXXXX              %+++++++++++++++++++++                  XXXXX",
"XXXXX              %+++++++++++++++++++++                  XXXXX",
"XXXXX              ++++++++++++++++++++++                  XXXXX",
"XXXXX             +++++++++++++++++++++++                  XXXXX",
"XXXXX             ++++++++++++++++++++++++                 XXXXX",
"XXXXX             ++++++++++++++++++++++++                 XXXXX",
"XXXXX             ++++++++++++++++++++++++                 XXXXX",
"XXXXX             ++++++++++++++++++++++++                 XXXXX",
"XXXXX             +++++++++++++++++++++##++                XXXXX",
"XXXXX             +#++#######+#####++######                XXXXX",
"XXXXX            +#########################+               XXXXX",
"XXXXX           ++#############++##########++              XXXXX",
"XXXXX          ++#########++++++++++#####+##+              XXXXX",
"XXXXX         +++#######+++@@@@@@@@++####+##++             XXXXX",
"XXXXX         +++#######+@@@@@@@@@@@++###+##++             XXXXX",
"XXXXX        ++++#######+@@@@%%%@@@@@@+##+##++             XXXXX",
"XXXXX        ++++#######+@@%%@@%%%%@@@+##+##++             XXXXX",
"XXXXX        ++++#######+@@@@%@@@@%%@@+##+##++             XXXXX",
"XXXXX        +##+####+##++@@@@%@@@@@@@+##+#+++             XXXXX",
"XXXXX        +##++###+###++@@@@@@@@@@@+##+#++++            XXXXX",
"XXXXX        +###+###+####+@@@@@@+@@@@+#++#+##+            XXXXX",
"XXXXX        ++##+####+###+@@@@+++++++##+##+##+            XXXXX",
"XXXXX         +##+####+###++@@@+###++###+####+             XXXXX",
"XXXXX         +#######++###++++########++####+             XXXXX",
"XXXXX          +##+####+###############+##++++             XXXXX",
"XXXXX          +##+####++################+++$              XXXXX",
"XXXXX          ++#++####################++O$               XXXXX",
"XXXXX           +#+++###################+O$$               XXXXX",
"XXXXX           ++++++################++OO                 XXXXX",
"XXXXX            ++  ++++++++++++++++++$O$$                XXXXX",
"XXXXX                 +###############+$$ $                XXXXX",
"XXXXX                 +###############+oo                  XXXXX",
"XXXXX                ++#######+#######+o                   XXXXX",
"XXXXX                +########+#######+o                   XXXXX",
"XXXXX                +###+####+####+##++                   XXXXX",
"XXXXX               ++###+####+####+###+                   XXXXX",
"XXXXX               +###++####+####+###++                  XXXXX",
"XXXXX               +###+#####+####+####+                  XXXXX",
"XXXXX              ++##++#####+####+####+                  XXXXX",
"XXXXX              +###+######+####+####++                 XXXXX",
"XXXXX              +###+######+####+#####++           &    XXXXX",
"XXXXX             +###++#####++####++####++          &&    XXXXX",
"XXXXX             +###+######+######++###++          &     XXXXX",
"XXXXX             +##################+###+          &&     XXXXX",
"XXXXX             +######################+        &&&      XXXXX",
"XXXXXX            ++++++++++++++++++++++++       &&       XXXXXX",
"XXXXXXX              +++++++     +++++++                 XXXXXXX",
"XXXXXXXX             @@@@@@@     +++++++                XXXXXXXX",
".XXXXXXXX            %%%%%%%     @@@@@@@               XXXXXXXX.",
"..XXXXXXXXXXXXXXXXXXXXXXXXXXXXXXX%******XXXXXXXXXXXXXXXXXXXXXX..",
"...XXXXXXXXXXXXXXXXXXXXXXXXXXXXXXXXXXXXXXXXXXXXXXXXXXXXXXXXXX...",
"....XXXXXXXXXXXXXXXXXXXXXXXXXXXXXXXXXXXXXXXXXXXXXXXXXXXXXXXX....",
".....XXXXXXXXXXXXXXXXXXXXXXXXXXXXXXXXXXXXXXXXXXXXXXXXXXXXXX....."
};
