/* XPM */
static char *_ec49b4990d041a4dc01c07b22901aceuDxbXYdQtsF3ONLd[] = {
/* columns rows colors chars-per-pixel */
"64 64 11 1 ",
"  c #35476E",
". c #414141",
"X c #5B5B5B",
"o c #FF9200",
"O c #E48A12",
"+ c #DFD512",
"@ c #CDC52E",
"# c #F6EC2B",
"$ c #FFF982",
"% c #F6F2A4",
"& c #CECACA",
/* pixels */
".....XXXXXXXXXXXXXXXXXXXXXXXXXXXXXXXXXXXXXXXXXXXXXXXXXXXXXX.....",
"....XXXXXXXXXXXXXXXXXXXXXXXXXXXXXXXXXXXXXXXXXXXXXXXXXXXXXXXX....",
"...XXXXXXXXXXXXXXXXXXXXXXXXXXXXXXXXXXXXXXXXXXXXXXXXXXXXXXXXXX...",
"..XXXXXXXXXXXXXXXXXXXXXXXXXXXXXXXXXXXXXXXXXXXXXXXXXXXXXXXXXXXX..",
".XXXXXXXXXXXXXXXXXXXXXXXXXXXXXXXXXXXXXXXXXXXXXXXXXXXXXXXXXXXXXX.",
"XXXXXXXXX                                              XXXXXXXXX",
"XXXXXXXX                                                XXXXXXXX",
"XXXXXXX                   @@@@@@@@@@                     XXXXXXX",
"XXXXXX                 @@@@#########@@@                   XXXXXX",
"XXXXX                  @###############@@                  XXXXX",
"XXXXX                @@##################@@                XXXXX",
"XXXXX              @@######################@@              XXXXX",
"XXXXX            @@##########################+             XXXXX",
"XXXXX           @###########OOOOOOO###########+            XXXXX",
"XXXXX          @#########Ooooooooooooo#########+           XXXXX",
"XXXXX         @########OOooooooooooooooo########@          XXXXX",
"XXXXX         @######OOooooooooooooooooooO#######@         XXXXX",
"XXXXX        @######OOoooooooooo$oooooooooo######@         XXXXX",
"XXXXX       @######Ooooooooo$o$o$oo$oooooooo######@        XXXXX",
"XXXXX       @#####Ooo%%ooooo$o$o$oo$ooooooooo#####@        XXXXX",
"XXXXX      @######Oo%%%ooooo$$$$$$$$$$oooooooo#####@       XXXXX",
"XXXXX      @#####Ooo%%%oooo$$o$o$oo$oooooooooo######@      XXXXX",
"XXXXX     @#####OOooooooo$$$$o$o$oo$ooooooooooo#####@      XXXXX",
"XXXXX     @#####Oooooooo$$oo$o$o$oo$ooooooooooo#####@      XXXXX",
"XXXXX     @####OOooooooo$ooo$o$o$oo$oooooooooooO#####@     XXXXX",
"XXXXX    @#####Ooooooooo$ooo$o$o$oo$oooooooooooo#####@     XXXXX",
"XXXXX    @#####Ooooooooo$ooo$o$o$oo$oooooooooooo#####@     XXXXX",
"XXXXX    @####OOoooooooo$ooo$o$o$oo$ooooooooooooo#####     XXXXX",
"XXXXX    @####OOoooooooo$$oo$o$o$oo$ooooooooooooo#####     XXXXX",
"XXXXX    @####OOooooooooo$$o$o$o$oo$ooooooooooooo#####     XXXXX",
"XXXXX    @####OOoooooooooo$$$o$o$oo$ooooooooooooo#####     XXXXX",
"XXXXX    @####OOoooooooooooo$$$$$$o$ooooooooooooo#####     XXXXX",
"XXXXX    @####OOoooooooooooo$oo$o$$$$$ooooooooooo#####     XXXXX",
"XXXXX    @####OOoooooooooooo$oo$o$o$o$$oooooooooo#####     XXXXX",
"XXXXX    @####OOoooooooooooo$oo$o$o$oo$$ooooooooo#####     XXXXX",
"XXXXX    @####OOoooooooooooo$oo$o$o$ooo$ooooooooo#####     XXXXX",
"XXXXX    @####OOoooooooooooo$oo$o$o$ooo$ooooooooo#####     XXXXX",
"XXXXX    @#####Ooooooooooooo$oo$o$o$ooo$oooooooo#####      XXXXX",
"XXXXX    @#####Oooooooooo$oo$oo$o$o$ooo$oooooooo#####      XXXXX",
"XXXXX     @####Oooooooooo$$o$oo$o$o$oo$$oooooooo#####      XXXXX",
"XXXXX     @#####oooooooooo$$$oo$o$o$o$$oooooooo######      XXXXX",
"XXXXX     @#####Ooooooooooo$$$o$o$o$$$ooooooooo#####       XXXXX",
"XXXXX     @######Ooooooooooo$$$$$$$$$ooooooooo######       XXXXX",
"XXXXX      @######Oooooooooo$oo$o$o$ooooooooo######        XXXXX",
"XXXXX      @######OOoooooooo$oo$o$o$ooooooooo######        XXXXX",
"XXXXX       @######OOooooooo$oo$o$o$oooooooo######         XXXXX",
"XXXXX        @######OOoooooo$oooo$o$ooooooo######          XXXXX",
"XXXXX         @######OOoooooooooo$oooooooo#######          XXXXX",
"XXXXX         @########OOoooooooo$oooooo########           XXXXX",
"XXXXX          @#########OOooooooooooo#########            XXXXX",
"XXXXX           @###########OOOOOoo###########             XXXXX",
"XXXXX            @@##########################           &  XXXXX",
"XXXXX              @#######################            &&  XXXXX",
"XXXXX               @@###################              &   XXXXX",
"XXXXX                 @@@##############               &&   XXXXX",
"XXXXX                    @@#########                &&&    XXXXX",
"XXXXXX                                             &&     XXXXXX",
"XXXXXXX                                                  XXXXXXX",
"XXXXXXXX                                                XXXXXXXX",
".XXXXXXXX                                              XXXXXXXX.",
"..XXXXXXXXXXXXXXXXXXXXXXXXXXXXXXXXXXXXXXXXXXXXXXXXXXXXXXXXXXXX..",
"...XXXXXXXXXXXXXXXXXXXXXXXXXXXXXXXXXXXXXXXXXXXXXXXXXXXXXXXXXX...",
"....XXXXXXXXXXXXXXXXXXXXXXXXXXXXXXXXXXXXXXXXXXXXXXXXXXXXXXXX....",
".....XXXXXXXXXXXXXXXXXXXXXXXXXXXXXXXXXXXXXXXXXXXXXXXXXXXXXX....."
};
