/* XPM */
static char *_69b17f73431491e94f24764e697efbfaEB7fsiH8a5wBCMf[] = {
/* columns rows colors chars-per-pixel */
"64 64 8 1 ",
"  c None",
". c black",
"X c #0B0B0B",
"o c #131111",
"O c gray9",
"+ c #1B1B1B",
"@ c #5F5F5F",
"# c #F72727",
/* pixels */
"oooOOOOOOOOOOOOOOOOOOOOOOOOOOOOOOOOOOOOOOOOOOOOOOOOOOOOOOOOooooo",
"ooOOOOOOOO@@@@@@@@@@@@@@OOOOOOOOOOOOOOOOOOOOOOOOOOOOOOOOOOOOOooo",
"oOOOOO@@@@@@@@@@@@@@@@@@@@@@@@@@@@@@@@@@@@@@@@@@@@@@@OOOOOOOOOoo",
"OOOOO@@@@@@+++++++++++++++++++++++++++++++++++++++++@@@@@@@@@OOO",
"OOOO@@@++++XXXXXXXXXXXXXXXXXXXXXXXXXXXXXXXXXXXXXXXX+++++++@@@OOO",
"OOOO@@+.....XXXXXXXXXXXXXXXXXXXXXXXXXXXXXXXXXXXXXXX......+@.@@OO",
"OOO@@@+......XXXXXXXXXXXXXXXXXXXXXXXXXXXXXXXXXXXXX.......+@@@@OO",
"OOO@@+...................................................+@.@@OO",
"OO@@+....................................................+@@@OOO",
"OO@@+....................................................+@@@OOO",
"OO@@+....................................................+@@@OOO",
"OO@@+....................................................+@@@OOO",
"OO@@+....................................................+@@@OOO",
"OOO@+....................................................+@@@OOO",
"OOO@+....................................................+@@OOOO",
"OOO@+....................................................+@@OOOO",
"oOO@+...................................................+@@@OOoO",
"oOO@+...................................................+@@@OOoO",
"oOO@+...................................................+@@@OOoO",
"oOO@+...................................................+@@@@OoO",
"oO@@+...................................................+@@@@OoO",
"oO@@+...................................................+@@@@OoO",
"oO@@+...................................................+@@@@OoO",
"oO@@+...................................................+@@@@OoO",
"oO@@+....................................................+@@@OoO",
"oO@@+....................................................+@@@OoO",
"oO@@+....................................................+@@@OoO",
"oO@@+....................................................+@@@OoO",
"oO@@+................................................. ...+@@OoO",
"oO@@+................................................. ...+@@OoO",
"oO@@+............................................##.. ....+@@OoO",
"oO@@+.........####..............................###.......+@@OoO",
"oO@@+.........######.#.......................#######......+@@OoO",
"oOO@+..........########....................#########......+@@OoO",
"oOO@+..........########...................#########........+@OoO",
"oOO@+..........##########.................#########........+@OoO",
"oOO@+............########................#########.........+@OoO",
"oOO@+............##########.............#########..........+@OoO",
"oOO@+...............########...........########. ..........+@OoO",
"ooO@+...............########...........#######. ...........+@OoO",
"OoO@+..................####............#####... ...........+@OoO",
"OoO@+......................................... ............+@OoO",
"OoO@+................................. ....................+@OoO",
"OoO@+................................ ....................+@@OoO",
"OoO@+.....................................................+@@OoO",
"OoO@+.....................................................+@@OoO",
"OoO@+.....................................................+@@OoO",
"OoO@+.....................................................+@@OoO",
"OoO@+.....................................................+@@OoO",
"OoO@+.....................................................+@@OoO",
"OoO@+......................................................+@OoO",
"OOO@+......................................................+@OoO",
"OOO@+......................................................+@OoO",
"OOO@+......................................................+@OOO",
"OOO@+......................................................+@OOO",
"OOO@+......................................................+@OOO",
"OOO@+......................................................+@OOO",
"OOO@+.......................................................+@OO",
"OOO@+.......................................................+@O.",
"OOO@+...................................................+++++@O.",
"oOO@+.................................................  +   +OO.",
"oOOO@+..................................................+@@@OO..",
"ooOOO+..................................................+@@OO...",
"oooOO+................................................ +  OO...."
};
