/* XPM */
static char *_b2e98264e0f48aeb210375fd893f674jxAG7LVEfRcYdMrq[] = {
/* columns rows colors chars-per-pixel */
"64 64 6 1 ",
"  c black",
". c #131111",
"X c gray9",
"o c gray33",
"O c #5F5F5F",
"+ c #E4EC3C",
/* pixels */
"...XXXXXXXXXXXXXXXXXXXXXXXXXXXXXXXXXXXXXXXXXXXXXXXXXXXXXXXX.....",
"..XXXXXXXXOOOOOOOOOOOOOOXXXXXXXXXXXXXXXXXXXXXXXXXXXXXXXXXXXXX...",
".XXXXXOOOOOOOOOOOOOOOOOOOOOOOOOOOOOOOOOOOOOOOOOOOOOOOXXXXXXXXX..",
"XXXXXOOOOOOOOOOOOOOOOOOOOOOOOOOOOOOOOOOOOOOOOOOOOOOOOOOOOOOOOXXX",
"XXXXOOOOOOOOOooooooooooOOOOOOOOOOOOOooooooooooOOOOOOOOOOOOOOOXXX",
"XXXXOOOOOOooooOOOOOOOOooooOOOOOOOoooOOOOOOOOOOOOOOOOOOOOOOOOOOXX",
"XXXOOOOOOOOOOOOOOOOOOOOOOOooooooooOOOOOOOOOOOOOOOOOOOOOOOoOOOOXX",
"XXXOOOOo    OOo    OOo     Oo    Oo    Oo   OoOOOOOOOOOOOoOOOOXX",
"XXOOOOOo    OOo    OOo     Oo    Oo    Oo   Oo  OOOOOOOOOoOOOXXX",
"XXOOOOo     OOo    OOo     Oo    Oo    Oo   Oo   OOOOOOOOoOOOXXX",
"XXOOOOo     OOo    OOo     Oo    Oo    Oo   Oo   OoOOOOOOoOOOXXX",
"XXOOOOo     OOo    OOo     Oo    Oo    Oo   Oo   Oo OOOOOoOOOXXX",
"XXOOOOo     OOo    OOo     Oo    Oo    Oo   Oo   Oo  OOOOoOOOXXX",
"XXXOOOo     OOo    OOo     Oo    Oo    Oo   Oo   Oo   OOOoOOOXXX",
"XXXOOOo     OOo    OOo     Oo    Oo    Oo   Oo   Oo   OOOoOOXXXX",
"XXXOOo      OOo    OOo     Oo    Oo    Oo   Oo   Oo   OOooOOXXXX",
".XXOOo      OOo    OOo     Oo    Oo    Oo   Oo   Oo   OOoOOOXX.X",
".XXOOo      OOo    OOo     Oo    Oo    Oo   Oo   Oo   OOoOOOXX.X",
".XXOOo      OOo    OOo     Oo    Oo    Oo   Oo   Oo   OOoOOOXX.X",
".XXOOo      OOo    OOo     Oo    Oo    Oo   Oo   Oo   OOoOOOOX.X",
".XOOOo      OOo    OOo     Oo    Oo    Oo   Oo   Oo   OOoOOOOX.X",
".XOOOo      OOo    OOo     Oo    Oo    Oo   Oo   Oo   OOoOOOOX.X",
".XOOOo      OOo    OOo     Oo    Oo    Oo   Oo   Oo   OOoOOOOX.X",
".XOOOo      OOo    OOo     Oo    Oo    Oo   Oo   Oo   OOoOOOOX.X",
".XOOOOo     OOo    OOo     Oo    Oo    Oo   Oo   Oo   OOooOOOX.X",
".XOOOOo     OOo    OOo     Oo    Oo    Oo   Oo   Oo   OOOoOOOX.X",
".XOOOOo     OOo    OOo     Oo    Oo    Oo   Oo   Oo    OOoOOOX.X",
".XOOOOo     OOo    OOo     Oo    Oo    Oo   Oo   Oo    OOoOOOX.X",
".XOOOOo     OOo    OOo     Oo    Oo    Oo   Oo   Oo    OOooOOX.X",
".XOOOOo     OOo    OOo     Oo    Oo    Oo   Oo   Oo    OOOoOOX.X",
".XOOOOo     OOo    OOo     Oo    Oo    Oo   Oo   Oo    OOOoOOX.X",
".XOOOOo     OOo    OOo     Oo    Oo    Oo   Oo   Oo    OOOoOOX.X",
".XOOOOo     OOo    OOo     Oo    Oo    Oo   Oo++ Oo    OOOoOOX.X",
".XXOOOOo    OOo    OOo     Oo    Oo    Oo   Oo++ Oo    OOOoOOX.X",
".XXOOOOo    OOo    OOo     Oo    Oo    Oo  +Oo+++Oo    OOOOoOX.X",
".XXOOOOo    OOo    OOo     Oo    Oo    Oo  +Oo+++Oo    OOOOoOX.X",
".XXOOOOo    OOo    OOo     Oo    Oo    Oo  +Oo+++Oo    OOOOoOX.X",
".XXOOOOo    OOo    OOo     Oo    Oo    Oo   Oo++ Oo    OOOOoOX.X",
".XXOOOOo    OOo    OOo     Oo    Oo    Oo   Oo   Oo    OOOooOX.X",
"..XOOOOo    OOo    OOo     Oo    Oo    Oo   Oo   Oo    OOOoOOX.X",
"X.XOOOOo    OOo    OOo     Oo    Oo    Oo   Oo   Oo    OOOoOOX.X",
"X.XOOOOo    OOo    OOo     Oo    Oo    Oo   Oo   Oo    OOOoOOX.X",
"X.XOOOOo    OOo    OOo     Oo    Oo    Oo   Oo   Oo    OOOoOOX.X",
"X.XOOOOo    OOo    OOo     Oo    Oo    Oo   Oo   Oo    OOOoOOX.X",
"X.XOOOOo    OOo    OOo     Oo    Oo    Oo   Oo   Oo    OOOoOOX.X",
"X.XOOOOo    OOo    OOo     Oo    Oo    Oo   Oo   Oo    OOOoOOX.X",
"X.XOOOOo    OOo    OOo     Oo    Oo    Oo   Oo   Oo    OOOoOOX.X",
"X.XOOOOo    OOo    OOo     Oo    Oo    Oo   Oo   Oo    OOOOOOX.X",
"X.XOOOOo    OOo    OOo     Oo    Oo    Oo   Oo   Oo    OOOOOOX.X",
"X.XOOOOo    OOo    OOo     Oo    Oo    Oo   Oo   Oo    OOOOOOX.X",
"X.XOOOo     OOo    OOo     Oo    Oo    Oo   Oo   Oo    OOOOOOX.X",
"XXXOOOo     OOo    OOo     Oo    Oo    Oo   Oo   Oo    OOOOOOX.X",
"XXXOOOo     OOo    OOo     Oo    Oo    Oo   Oo   Oo    OOOOOOX.X",
"XXXOOOo     OOo    OOo     Oo    Oo    Oo   Oo   Oo     OOOOOXXX",
"XXXOOOo     OOo    OOo     Oo    Oo    Oo   Oo   Oo     OOOOOXXX",
"XXXOOOo     OOo    OOo     Oo    Oo    Oo   Oo   Oo     OOOOOXXX",
"XXXOOOo     OOo    OOo     Oo    Oo    Oo   Oo   Oo     OOOOOXXX",
"XXXOOOo     OOo    OOo     Oo    Oo    Oo   Oo   Oo     OOOOOOXX",
"XXXOOOo     OOo    OOo     Oo    Oo    Oo   Oo   Oo     OOOOOOX ",
"XXXOOOo     OOo    OOo     Oo    Oo    Oo   Oo   Oo      OOOOOX ",
".XXOOOo     OOo    OOo     Oo    Oo    Oo   Oo   Oo      OOOOXX ",
".XXXOOo     OOo    OOo     Oo    Oo    Oo   Oo   Oo      OOOXX  ",
"..XXXOo     OOo    OOo     Oo    Oo    Oo   Oo   Oo      OOXX   ",
"...XXOo     OOo    OOo     Oo    Oo    Oo   Oo   Oo     OOXX    "
};
