/* XPM */
static char *result[] = {
/* columns rows colors chars-per-pixel */
"64 64 17 1 ",
"  c #163137",
". c #1B3D44",
"X c #35476E",
"o c #414141",
"O c #5B5B5B",
"+ c #D6747D",
"@ c #53BCD1",
"# c #3DDDFF",
"$ c #5FCDE4",
"% c #B6B6B6",
"& c #FFBF86",
"* c #E4BC98",
"= c #FFB2BA",
"- c #FFD2AA",
"; c #86EAFF",
": c #CECACA",
"> c white",
/* pixels */
"oooooOOOOOOOOOOOOOOOOOO;;;;OO;;;O;;;@OOOOOOOOOOOOOOOOOOOOOOooooo",
"ooooOOOOOOOOOOOOOOOOOOO;##;;;;#;;;#;@OOOOOOOOOOOOOOOOOOOOOOOoooo",
"oooOOOOOOOOOOOOOOOOOOOO;###########;;@OOOOOOOOOOOOOOOOOOOOOOOooo",
"ooOOOOOOOOOOOOOOOOOOOO;##;####;#####;@OOOOOOOOOOOOOOOOOOOOOOOOoo",
"oOOOOOOOOXXXXXXXXXXXX;;#;;;###;###;#;;@XXXXXXXXXXXXXXXXOOOOOOOOo",
"OOOOOOOOXXXXXXXXXXXXX;##;#;###;;##;;#;@XXXXXXXXXXXXXXXXXOOOOOOOO",
"OOOOOOOXXXXXXXXXXXXXX;#;##;####;###;#;;@XXXXXXXXXXXXXXXXXOOOOOOO",
"OOOOOOXXXXXXXXXXXXXXX;;@@@@@@@@@@@@#;#;@XXXXXXXXXXXXXXXXXXOOOOOO",
"OOOOOXXXXXXXXXXXXXX@;@@@..........@@@#;;@XXXXXXXXXXXXXXXXXXOOOOO",
"OOOOOXXXXXXXXXXXXXX@@....        ...@@@@@XXXXXXXXXXXXXXXXXXOOOOO",
"OOOOOXXXXXXXXXXXXXX@@.             ....@@XXXXXXXXXXXXXXXXXXOOOOO",
"OOOOOXXXXXXXXXXXXXX@@    %%     %%     @@@XXXXXXXXXXXXXXXXXOOOOO",
"OOOOOXXXXXXXXXXXXXX@@     %     %      @@@XXXXXXXXXXXXXXXXXOOOOO",
"OOOOOXXXXXXXXXXXXX@@@                 *-@@XXXXXXXXXXXXXXXXXOOOOO",
"OOOOOXXXXXXXXXXXXX@@-*               *--@@XXXXXXXXXXXXXXXXXOOOOO",
"OOOOOXXXXXXXXXXXXX@@--***************----@XXXXXXXXXXXXXXXXXOOOOO",
"OOOOOXXXXXXXXXXXXX@@---------------------@XXXXXXXXXXXXXXXXXOOOOO",
"OOOOOXXXXXXXXXXXXX@@@---&&&&&&&&&&&-----@@XXXXXXXXXXXXXXXXXOOOOO",
"OOOOOXXXXXXXXXXXXX@@@------------------@@@XXXXXXXXXXXXXXXXXOOOOO",
"OOOOOXXXXXXXXXXXXX@@@@@@@@@@@@@@@@@@@@@@$$@@XXXXXXXXXXXXXXXOOOOO",
"OOOOOXXXXXXXXXXXXX@@$@$$$$$$$@$$$$$$@@$$$$$@@XXXXXXXXXXXXXXOOOOO",
"OOOOOXXXXXXXXXXXX@$$$$$$$$$$$$$$$$$$$$$$$$$$@@XXXXXXXXXXXXXOOOOO",
"OOOOOXXXXXXXXXX@@@$$$$$$$$$$$$$@@@$$$$$$$$$$@@@XXXXXXXXXXXXOOOOO",
"OOOOOXXXXXXXXXX@@$$$$$$$$$@@@@@@@@@@@$$$$$$$$@@@XXXXXXXXXXXOOOOO",
"OOOOOXXXXXXXXX@@@$$$$$$$@@@#########@@$$$$$$$@$$@XXXXXXXXXXOOOOO",
"OOOOOXXXXXXXXX@$@$$$$$$$@############@@$$$@$$@$$@XXXXXXXXXXOOOOO",
"OOOOOXXXXXXXXX@$@$$$$$$$@####;;;;######@$$$$$@$$@XXXXXXXXXXOOOOO",
"OOOOOXXXXXXXX@$$@$$$$$$$@##;;###;;;;###@$$$$$@$$@XXXXXXXXXXOOOOO",
"OOOOOXXXXXXXX@$$@$$$$$$$@####;#####;;##@$$$$$@$$@XXXXXXXXXXOOOOO",
"OOOOOXXXXXXXX@$$@$$$$$$$@@####;;#######@$$$$@$$$@XXXXXXXXXXOOOOO",
"OOOOOXXXXXXXX@$$$@$$$$$$$@@############@$$$$@$$$@XXXXXXXXXXOOOOO",
"OOOOOXXXXXXXX@$$$@$$$$$$$$@#######@####@$$$@@$$$@XXXXXXXXXXOOOOO",
"OOOOOXXXXXXXX@$$$$@$$@$$$$@#####@@@@@@@$$@$@@$$$@XXXXXXXXXXOOOOO",
"OOOOOXXXXXXXX@$$$$@$$@$$$$@@###@@$$$@@$$$@$@$$$$@XXXXXXXXXXOOOOO",
"OOOOOXXXXXXXXX@@$$@$$@@$$$$@@@@$$$$$$$$$$@$@$$$$@XXXXXXXXXXOOOOO",
"OOOOOXXXXXXXXXX@@$$@$$@@$$$$$$$$$$$$$$$$$$@$$$$$@XXXXXXXXXXOOOOO",
"OOOOOXXXXXXXXXXX@@@@$$$@$$$$$$$$$$$$$$$$$$@@$$$@@XXXXXXXXXXOOOOO",
"OOOOOXXXXXXXXXXX@@@@@$$$@$$$$$$$$$$$$$$$$@==@@$@XXXXXXXXXXXOOOOO",
"OOOOOXXXXXXXXXXXXXXX@$$$$$$$$$$$$$$$$$$$$@====@@XXXXXXXXXXXOOOOO",
"OOOOOXXXXXXXXXXXXXXXX@$$$$$$$$$$$$$$$$$@@X==+===X=XXXXXXXXXOOOOO",
"OOOOOXXXXXXXXXXXXXXXX@@@@@@@@@@@@@@@@@@@XX========XXXXXXXXXOOOOO",
"OOOOOXXXXXXXXXXXXXXXXX@$$$$$$$$$$$$$$$$@XX==+====XXXXXXXXXXOOOOO",
"OOOOOXXXXXXXXXXXXXXXXX@$$$$$$$$$$$$$$$$@XX=======XXXXXXXXXXOOOOO",
"OOOOOXXXXXXXXXXXXXXXX@@$$$$$$$@$$$$$$$$@XX==+===XXXXXXXXXXXOOOOO",
"OOOOOXXXXXXXXXXXXXXXX@$$$$$$$$@$$$$$$$$@XX======XXXXXXXXXXXOOOOO",
"OOOOOXXXXXXXXXXXXXXXX@$$$@$$$$@$$$$$@$$@@X==++==XXXXXXXXXXXOOOOO",
"OOOOOXXXXXXXXXXXXXXXX@$$$@$$$$@$$$$$@$$$@X==++==XXXXXXXXXXXOOOOO",
"OOOOOXXXXXXXXXXXXXXXX$$$@@$$$$@$$$$$@$$$@@XX++XXXXXXXXXXXXXOOOOO",
"OOOOOXXXXXXXXXXXXXXXX$$$@$$$$$@$$$$$@$$$$@XX++XXXXXXXXXXXXXOOOOO",
"OOOOOXXXXXXXXXXXXXXX@$$@@$$$$$@$$$$$@$$$$@XXXXXXXXXXXXXXXXXOOOOO",
"OOOOOXXXXXXXXXXXXXXX@$$@$$$$$$@$$$$$@$$$$@XXXXXXXXXXXXXXXXXOOOOO",
"OOOOOXXXXXXXXXXXXXXX@$$@$$$$$$@$$$$$@$$$$$@XXXXXXXXXXX:XXXXOOOOO",
"OOOOOXXXXXXXXXXXXXX@$$@@$$$$$@@$$$$$@@$$$$@XXXXXXXXXX::XXXXOOOOO",
"OOOOOXXXXXXXXXXXXXX@$$@$$$$$$@$$$$$$$@@$$$@XXXXXXXXXX:XXXXXOOOOO",
"OOOOOXXXXXXXXXXXXXX@$$$$$$$$$$$$$$$$$$@$$$XXXXXXXXXX::XXXXXOOOOO",
"OOOOOXXXXXXXXXXXXXX@$$$$$$$$$$$$$$$$$$$$$$XXXXXXXX:::XXXXXXOOOOO",
"OOOOOOXXXXXXXXXXXXX@@@@@@@@@@@@@@@@@@@@@@@@@XXXXX::XXXXXXXOOOOOO",
"OOOOOOOXXXXXXXXXXXXXX@@@@@@@XXXXXX@@@@@@@XXXXXXXXXXXXXXXXOOOOOOO",
"OOOOOOOOXXXXXXXXXXXXX@@@@@@@XXXXXX#######XXXXXXXXXXXXXXXOOOOOOOO",
"oOOOOOOOOXXXXXXXXXXXX#######XXXXXX;;;;;;;XXXXXXXXXXXXXXOOOOOOOOo",
"ooOOOOOOOOOOOOOOOOOOO;>>>>>>OOOOOOOOOOOOOOOOOOOOOOOOOOOOOOOOOOoo",
"oooOOOOOOOOOOOOOOOOOOOOOOOOOOOOOOOOOOOOOOOOOOOOOOOOOOOOOOOOOOooo",
"ooooOOOOOOOOOOOOOOOOOOOOOOOOOOOOOOOOOOOOOOOOOOOOOOOOOOOOOOOOoooo",
"oooooOOOOOOOOOOOOOOOOOOOOOOOOOOOOOOOOOOOOOOOOOOOOOOOOOOOOOOooooo"
};
