/* XPM */
static char *result[] = {
/* columns rows colors chars-per-pixel */
"64 64 18 1 ",
"  c #201718",
". c #163137",
"X c #35476E",
"o c #414141",
"O c #5B5B5B",
"+ c #D6747D",
"@ c #F67D89",
"# c #53BCD1",
"$ c #3DDDFF",
"% c #5FCDE4",
"& c #B6B6B6",
"* c #FFBF86",
"= c #E4BC98",
"- c #FFB2BA",
"; c #FFD2AA",
": c #86EAFF",
"> c #CECACA",
", c #FFEFEF",
/* pixels */
"oooooOOOOOOOOOOOOOOOOOOOOOOOOOOOOOOOOOOOOOOO####OOOOOOOOOOOooooo",
"ooooOOOOOOOOOOOOOOOOOOOOOOOOOOOOOOOOOOOOOOOO:::#OOOOOOOOOOOOoooo",
"oooOOOOOOOOOOOOOOOOOOOOOOOOOOOOOOOOOOO####OO:::#OOOOOOOOOOOOOooo",
"ooOOOOOOOOOOOOOOOOOOOOOOOOOOOOOOOOOOO#::::O#:::#OOOOOOOOOOOOOOoo",
"oOOOOOOOOXXXXXXXXXXXXXXXXXXXXXXXXXXX#:::$::::$:#XXXXXXXOOOOOOOOo",
"OOOOOOOOXXXXXXXXXXXXXXXXXXXXXXXXXX#:::$$$$$$$$:#XXXXXXXXOOOOOOOO",
"OOOOOOOXXXXXXXXXXXXXXXXXX#########::$$$$$$$$:$:#XXXXXXXXXOOOOOOO",
"OOOOOOXXXXXXXXXXXXXXXXX##%%%%%%%##$$$$$$::::$$:#XXXXXXXXXXOOOOOO",
"OOOOOXXXXXXXXXXXXXXXXX#%%%%:::%%%%##$$:::$$$$::#XXXXXXXXXXXOOOOO",
"OOOOOXXXXXXXXXXXXXXXXX#%::::%%%%%%%%#$$$$$::::##XXXXXXXXXXXOOOOO",
"OOOOOXXXXXXXXXXXXXXXXX#%::::%%%%%%%%#$$$$$::::##XXXXXXXXXXXOOOOO",
"OOOOOXXXXXXXXXXXXXXXXX#%::::%%%%%%%%#$$$$$::::##XXXXXXXXXXXOOOOO",
"OOOOOXXXXXXXXXXXXXXXX#%::%%%%%%%%%%%#$$$$$:$::#XXXXXXXXXXXXOOOOO",
"OOOOOXXXXXXXXXXXXXXXX#%:%%%%%%%%%%%%#$$$$$$$:##XXXXXXXXXXXXOOOOO",
"OOOOOXXXXXXXXXXXXXXX#%%%%%%%%%%%%%%%%#$$$:$$:#XXXXXXXXXXXXXOOOOO",
"OOOOOXXXXXXXXXXXXXXX#%%%%%%%%%%%%%%%%#$$::$$##XXXXXXXXXXXXXOOOOO",
"OOOOOXXXXXXXXXXXXXXX#%%###########%%%%$$:$$$#XXXXXXXXXXXXXXOOOOO",
"OOOOOXXXXXXXXXXXXXXX#%%.......#####%%%$$$$$:#XXXXXXXXXXXXXXOOOOO",
"OOOOOXXXXXXXXXXXXXXX###...&&.....##%%%#$$$:#XXXXXXXXXXXXXXXOOOOO",
"OOOOOXXXXXXXXXXXXXXX###...&&.....##%%%#$$$:#XXXXXXXXXXXXXXXOOOOO",
"OOOOOXXXXXXXXXXXXXXX#=##...&......##%%#$$:##XXXXXXXXXXXXXXXOOOOO",
"OOOOOXXXXXXXXXXXXXXX#;=###.........##%#::#XXXXXXXXXXXXXXXXXOOOOO",
"OOOOOXXXXXXXXXXXXXXX#;;==#################XXXXXXXXXXXXXXXXXOOOOO",
"OOOOOXXXXXXXXXXXXXXX##;;;=====########XXXXXXXXXXXXXXXXXXXXXOOOOO",
"OOOOOXXXXXXXXXXXXXXXX#;;;;;;;;===#####XXXXXXXXXXXXXXXXXXXXXOOOOO",
"OOOOOXXXXXXXXXXXXXXX###;;*;;;;;;;####XXXXXXXXXXXXXXXXXXXXXXOOOOO",
"OOOOOXXXXXXXXXXXXXX##%##;*****;;;####XXXXXXXXXXXXXXXXXXXXXXOOOOO",
"OOOOOXXXXXXXXXXXXXX##%##;*****;;;####XXXXXXXXXXXXXXXXXXXXXXOOOOO",
"OOOOOXXXXXXXXXXXX##%%%%##;;;;;;;;#XXXXXXXXXXXXXXXXXXXXXXXXXOOOOO",
"OOOOOXXXXXXXXXXX###%%##############XXXXXXXXXXXXXXXXXXXXXXXXOOOOO",
"OOOOOXXXXXXXXXX###%%%%%%%####%%%%%##XXXXXXXXXXXXXXXXXXXXXXXOOOOO",
"OOOOOXXXXXXXXXX#%#%%%%%%%####%%%%%%#XXXXXXXXXXXXXXXXXXXXXXXOOOOO",
"OOOOOXXXXXXXXX##%#%%%%%%%%%%%%%%%%%#XXXXXXXXXXXXXXXXXXXXXXXOOOOO",
"OOOOOXXXXXXXXX#%%#%%%%######%%%%%%%##XXXXXXXXXXXXXXXXXXXXXXOOOOO",
"OOOOOXXXXXXXX##%%#%%%#$$:$$#%%%%#%%##XXXXXXXXXXXXXXXXXXXXXXOOOOO",
"OOOOOXXXXXXXX#%%%#%%%#$$:$$##%%%#%%##XXXXXXXXXXXXXXXXXXXXXXOOOOO",
"OOOOOXXXXXXXX#%%%#%%#$$::$$$##%%##%#XXXXXXXXXXXXXXXXXXXXXXXOOOOO",
"OOOOOXXXXXXXX#%%%#%#$$:$$$:$$#%%####XXXXXXXXXXXXXXXXXXXXXXXOOOOO",
"OOOOOXXXXXXXX#%%##%##$:$$::$$$##-##XXXXXXXXXXXXXXXXXXXXXXXXOOOOO",
"OOOOOXXXXXXXX#%%##%%##$$::$$$$--- #XXXXXXXXXXXXXXXXXXXXXXXXOOOOO",
"OOOOOXXXXXXXX#####%%%##$$$$$##--- XXXXXXXXXXXXXXXXXXXXXXXXXOOOOO",
"OOOOOXXXXXXXX##XX#%%%%%######@@@- XXXXXXXXXXXXXXXXXXXXXXXXXOOOOO",
"OOOOOXXXXXXXXXXXX#%%%%%%%%%%%@@ ##XXXXXXXXXXXXXXXXXXXXXXXXXOOOOO",
"OOOOOXXXXXXXXXXXX#%%%%%%%%%%-@@-##XXXXXXXXXXXXXXXXXXXXXXXXXOOOOO",
"OOOOOXXXXXXXXXXXXX#%%%%%%%%%--- #XXXXXXXXXXXXXXXXXXXXXXXXXXOOOOO",
"OOOOOXXXXXXXXXXXXX#%%%%%%%%%++  #XXXXXXXXXXXXXXXXXXXXXXXXXXOOOOO",
"OOOOOXXXXXXXXXXXXX#%%%%%%%%%+ %%#XXXXXXXXXXXXXXXXXXXXXXXXXXOOOOO",
"OOOOOXXXXXXXXXXXXXX#%%%%%%%++ ###XXXXXXXXXXXXXXXXXXXXXXXXXXOOOOO",
"OOOOOXXXXXXXXXXXXXX###%%%%%% %##XXXXXXXXXXXXXXXXXXXXXXXXXXXOOOOO",
"OOOOOXXXXXXXXXXXXXXXX#########XXXXXXXXXXXXXXXXXXXXXXXXXXXXXOOOOO",
"OOOOOXXXXXXXXXXXXXXX###%%%%###XXXXXXXXXXXXXXXXXXXXXXXXXXXXXOOOOO",
"OOOOOXXXXXXXXXXXXXXX####%%%%##XXXXXXXXXXXXXXXXXXXXXXXX>XXXXOOOOO",
"OOOOOXXXXXXXXXXXXXXX##%#%%%%##XXXXXXXXXXXXXXXXXXXXXXX>>XXXXOOOOO",
"OOOOOXXXXXXXXXXXXXX##%%##%%%%#XXXXXXXXXXXXXXXXXXXXXXX>XXXXXOOOOO",
"OOOOOXXXXXXXXXXXXX##%%%%###%%###XXXXXXXXXXXXXXXXXXXX>>XXXXXOOOOO",
"OOOOOXXXXXXXXXXXX##%%%%%%##%%%###XXXXXXXXXXXXXXXXX>>>XXXXXXOOOOO",
"OOOOOOXXXXXXXXXXX#%%%%%%%%##%%%%##XXXXXXXXXXXXXXX>>XXXXXXXOOOOOO",
"OOOOOOOXXXXXXXXX#%%%%%%%%%%%#%%%%##XXXXXXXXXXXXXXXXXXXXXXOOOOOOO",
"OOOOOOOOXXXXXXX####################XXXXXXXXXXXXXXXXXXXXXOOOOOOOO",
"oOOOOOOOOXXXXXX####################XXXXXXXXXXXXXXXXXXXXOOOOOOOOo",
"ooOOOOOOOOOOOOOO$$$$$$$OOOO$$$$$$$$OOOOOOOOOOOOOOOOOOOOOOOOOOOoo",
"oooOOOOOOOOOOOOO:::::::OOOO,,,,,,,:OOOOOOOOOOOOOOOOOOOOOOOOOOooo",
"ooooOOOOOOOOOOOOOOOOOOOOOOOOOOOOOOOOOOOOOOOOOOOOOOOOOOOOOOOOoooo",
"oooooOOOOOOOOOOOOOOOOOOOOOOOOOOOOOOOOOOOOOOOOOOOOOOOOOOOOOOooooo"
};
