/* XPM */
static char *_6ec416853584a60c7b7c87c1813319a65QaXy84mVGcfy0i[] = {
/* columns rows colors chars-per-pixel */
"64 64 142 2 ",
"   c #260F03",
".  c #2C0E02",
"X  c #250F09",
"o  c #310E01",
"O  c #261205",
"+  c #2B1104",
"@  c #2F1806",
"#  c #261209",
"$  c #2A1309",
"%  c #331204",
"&  c #3A1406",
"*  c #351509",
"=  c #3A1609",
"-  c #351A0C",
";  c #3D1A0B",
":  c #3C1D11",
">  c #3F200F",
",  c #372011",
"<  c #3E2113",
"1  c #421D0D",
"2  c #481D0E",
"3  c #431E11",
"4  c #44200F",
"5  c #4C210F",
"6  c #442112",
"7  c #4B2415",
"8  c #472816",
"9  c #4D2816",
"0  c #432519",
"q  c #4C2619",
"w  c #4D2A1A",
"e  c #502517",
"r  c #512A17",
"t  c #532C1B",
"y  c #552C1C",
"u  c #562F1E",
"i  c #5A2E1B",
"p  c #56301F",
"a  c #5A311E",
"s  c #5B331F",
"d  c #65351E",
"f  c #6C361E",
"g  c #67381F",
"h  c #6B381E",
"j  c #72351E",
"k  c #4A2D20",
"l  c #552F21",
"z  c #5A2F21",
"x  c #4E3221",
"c  c #573020",
"v  c #563222",
"b  c #583221",
"n  c #5C3323",
"m  c #5B3521",
"M  c #5E3423",
"N  c #583324",
"B  c #5C3624",
"V  c #553927",
"C  c #5E3925",
"Z  c #5C3528",
"A  c #563D2A",
"S  c #5C3B2A",
"D  c #5F3B2B",
"F  c #623723",
"G  c #663720",
"H  c #673723",
"J  c #603625",
"K  c #633725",
"L  c #653725",
"P  c #643726",
"I  c #6B3521",
"U  c #693723",
"Y  c #6B3623",
"T  c #623823",
"R  c #663823",
"E  c #623B27",
"W  c #643925",
"Q  c #673826",
"!  c #6B3923",
"~  c #6C3A23",
"^  c #693824",
"/  c #623728",
"(  c #633928",
")  c #603A2A",
"_  c #643828",
"`  c #653B2B",
"'  c #683A29",
"]  c #723720",
"[  c #703824",
"{  c #633E31",
"}  c #5F4636",
"|  c #64422F",
" . c #69412F",
".. c #634331",
"X. c #6D4E3D",
"o. c #704F3C",
"O. c #6D513E",
"+. c #71513E",
"@. c #6D4F40",
"#. c #6F5240",
"$. c #715442",
"%. c #7B5A46",
"&. c #765A4B",
"*. c #7C5E4B",
"=. c #7D5F51",
"-. c #7D604B",
";. c #805847",
":. c #815E4D",
">. c #81604D",
",. c #856456",
"<. c #8C6A55",
"1. c #856A58",
"2. c #8B6E5C",
"3. c #8E715C",
"4. c #90725A",
"5. c #977564",
"6. c #9D7762",
"7. c #977B62",
"8. c #9A7A62",
"9. c #957A68",
"0. c #A37F67",
"q. c #A27F6A",
"w. c #A28167",
"e. c #A3826A",
"r. c #AA8B74",
"t. c #A98D7B",
"y. c #B28F76",
"u. c #AE9376",
"i. c #AE937C",
"p. c #B59575",
"a. c #B99776",
"s. c #B79976",
"d. c #BA9875",
"f. c #B4957A",
"g. c #B99779",
"h. c #B6987B",
"j. c #BA987A",
"k. c #AE9380",
"l. c #B49581",
"z. c #B99781",
"x. c #B69882",
"c. c #B99981",
/* pixels */
"U H Q Q y ; . . + O O O O . . ; p Q H f ! ~ ! ^ L K q & o + O O O O O . . 3 B Q U U U U U U Q ( 9 % . + + $ $ O   . % 6 B Q ! ! ",
"^ Q Q Q y ; o . + O O O + . . ; y E H ! ! ~ ^ ^ Q K r & o . O . . . O . . 3 n Q L H U ^ ' ' _ ( 9 % . . . O O O . + % 6 a F H H ",
"Q Q _ ( y ; o . + + + + + . . ; c E Q R R ! R Q Q ( r & o . . . . . O + % 6 b ( L L Q ^ _ _ _ ( 9 % . . . . + + . . % 6 m E T T ",
"_ _ _ _ y 1 o o . . . . % o o 1 b ( E T F F K E _ _ t = o . . . . . + + % 6 N ( ( _ _ _ ( Z ( D 9 % . . . . . . o o o 6 M E E T ",
"y y y y 9 6 1 ; ; ; ; ; ; ; ; 6 r y t r r r y y y y q 3 1 1 1 ; ; : : - % ; q t t y y y t t t t 6 % % = ; ; ; ; ; 1 1 7 t t t t ",
"; ; ; ; 3 r y p p y y y y y y q 1 ; ; ; ; ; ; ; ; = 3 t b a y p c l k 3 % % = = ; ; ; ; ; = = = % % 1 9 t y y y y l l 9 1 ; ; ; ",
". . o o 1 y ( E E E Q E K E ( r = o . . . . % o o o 3 N ( Q Q _ ( D Z 0 % = 7 9 9 w w t w w 8 q 3 & 6 c C ( _ _ Q _ E 9 % o % % ",
". . . o ; y E E Q Q Q Q Q Q _ y ; % . . + + . . . o 3 b ( Q R Q _ ( Z 7 % l %.<.<.<.<.<.<.<.<.,...1 1 p E Q Q Q Q Q K 9 % . + + ",
". . . . ; y E L L U U U ^ Q Q y ; % . . O O . . . % 6 b E R H R Q _ K 7 & ..q.z.j.j.j.j.j.j.l.l.:.6 1 a Q R ! ^ ^ L K 9 % . .   ",
"O . . + ; y K Q ^ U U U U U L r = . + O $ O   . . % 3 c E R ! R Q _ K 9 & ..q.j.j.j.j.a.j.j.z.l.:.6 1 i R R ! ! ~ U K 9 % . O O ",
"O O + + ; t K ^ ~ U f U U U H r = . $ $ $ O O . + % 1 p K R ! H L Q K 9 &  .0.j.j.j.a.a.a.j.c.l.:.6 1 i d f f U U U L 9 % + O O ",
"O . . . ; y K R ! U f f f U R r = . O $ #     . + % 1 a L U U H H Q K 9 & | 0.j.j.j.a.a.a.d.j.f.:.6 1 i d f f f U U L 9 % O O O ",
"O . . . ; y E R U ! ~ f f U R y = . O O O     O + % 1 a L U U d d Q ( 9 & | 0.j.j.j.j.j.a.d.h.f.:.6 1 i g h f f U U L e % + O # ",
"+ . . o ; y E Q R H H U U ! Q t = . O O $ $ O O . . 1 b Q ^ ! H T E ( q & | 0.j.a.a.j.j.d.s.h.f.:.6 1 a R h h U U U L 9 % . O O ",
"% . o o ; y E E Q F F R ^ Q E t = + O O $ $ $ O . . : N _ ' ' Q E ( D q & | 0.a.a.a.j.j.d.s.h.f.>.7 6 p E R ! ! L L K 7 o . . + ",
"1 1 1 1 6 9 r y y r r r y t 9 6 * . + O O $ O . . . - 8 t y y t w w w 3 % | 0.j.a.j.j.j.d.s.g.i.*.6 ; 7 r t y y y y r 7 1 1 1 ; ",
"a p c b 9 1 ; ; ; = & = = = * % . . + + .   . . + + * - - = = = - - - % % | 0.j.j.j.j.j.d.s.g.u.*.6 % % * = ; ; ; ; 1 7 y a a a ",
"Q E E ( y ; o % % + . + + . . - 0 k x x k k k w < - O O . . . . + + O . % | w.j.j.j.j.j.j.s.g.u.*.: . . . + + + + . % 7 F Q R H ",
"H H Q ( t = . . . O $ O O O O k &.2.3.3.2.2.2.1.} - O O O O O O O O O + % ..w.j.a.j.j.j.j.s.h.f.*.: . . O + + O   . . 6 F ^ U f ",
"U H R Q t = . .   O $ $ # O O A 9.l.x.c.c.l.l.i.&., O O O # # O O O O O @ ..w.j.a.a.j.j.h.s.h.f.-.: . O O O O O     + 6 F ! f f ",
"f U Q _ y ; . . O $ $ # O O O A 9.l.h.j.j.j.l.i.&., O O O # # O O O O O @ ..e.j.p.a.j.j.j.p.h.u.-.< . O O O O O O O + 6 F U U j ",
"U ! ^ _ y ; . + $ $ # # O O   V 7.h.j.j.j.j.j.f.*.- O O O # # O O O O O + ..e.j.p.p.j.j.j.p.f.u.*.< O . O O O O O O $ 6 B U [ ] ",
"! ! Q Q y ; + + O O $ # # O + A 7.j.j.j.j.j.j.f.*.- + O $ $ $ O O O     + ..e.g.a.a.j.j.j.p.g.u.*.< + . . O O O O O + 6 n U U [ ",
"! ! Q K r ; . . . . O O $ O + D 7.j.j.j.j.j.j.f.%.- . O $ $ $ O O       + | w.g.a.a.j.j.j.j.h.u.*.< + . . + + O     . 6 n L U U ",
"Q Q E E t ; o . . + + O O O + D 8.j.j.a.a.a.j.p.%.- + + + + + + +     . + | w.j.j.j.j.j.a.j.h.u.*.6 . . . + + + + . . 6 B Q L H ",
"E ( ( ( y ; o o % % % + . . . D 8.j.j.a.a.a.j.f.%.; + + + . . + + . . . + | w.j.j.j.j.p.a.d.h.u.*.6 . o o % % % % . o 6 C ( E K ",
"r 9 r t 9 6 1 1 1 1 6 : : - % D 8.j.j.a.a.j.j.p.%.; * : : 1 1 1 > < : - * | w.j.j.j.j.a.a.d.h.i.*.: % ; 1 1 1 1 3 3 3 7 9 t r r ",
"& = = = 6 t b c p c c N c 0 % D 8.j.g.p.j.j.j.f.%.; ; k N c c c c N c 0 % | w.j.a.a.j.j.d.a.h.f.*.: ; t b a a a b b N q ; = = = ",
". . o o 1 p ( E K E ( ( D w % D 8.j.j.a.d.j.j.p.%.; 3 N ( / K E _ _ D q % | w.j.a.a.j.j.a.a.j.f.*.: ; b ( T F K L ( K q % . + + ",
". . . o 1 y E K F Q Q ( D 9 & D 8.j.a.d.d.d.a.y.%.3 3 N ( K L Q Q E B 7 & ..e.j.a.a.a.a.a.a.j.f.*.3 ; b Q R R R Q Q F 9 % . + + ",
"O O + o 1 y K H H Q ^ Q E 9 & D 6.j.a.d.d.d.a.y.%.3 3 b ( L H R R E M 7 & ..e.j.a.a.a.a.a.a.j.p.:.3 1 b Q R ! ! ! R d 7 % + + O ",
"O O + o 1 y Q Q ^ ^ U Q C 9 & ( 6.j.a.d.d.d.j.y.%.3 1 a Q ^ ! ! R R B 7 & ..e.j.a.a.a.j.j.j.h.p.*.3 1 a Q ! f f f f d 7 % + O O ",
"O O + o 1 y Q ^ ^ U U R C 9 & ( 8.j.a.d.d.a.j.y.;.3 1 a R ! U ! g R F 7 & { 0.j.a.a.a.j.j.j.h.p.*.6 1 a ! f f f f f d 7 % + O # ",
"O + + o 1 y L Q ^ ^ H R T 9 & ( 8.j.j.d.d.j.j.y.;.3 2 a R U U f f R K 7 & | 0.j.a.d.j.j.j.j.h.p.-.6 1 i U f f f f f H 7 % + O # ",
"O + % o ; y K Q ^ ^ Q R T 9 & ( 8.j.h.j.j.j.j.y.%.1 1 a H U U f f R L 7 & | 0.j.a.a.j.j.j.g.h.u.-.6 1 i U f f f U ! H 7 % O O O ",
"+ + o o 1 z _ Q Q Q Q E C 9 % D 8.j.h.j.j.j.j.y.%.1 1 a Q U U U R Q K 9 & | 0.j.a.a.j.j.j.g.h.u.-.6 1 a R f f U ~ ! F 9 % + O O ",
"o % o o 1 b _ E M E E C C 8 % D 8.h.j.j.j.j.j.y.%.1 1 b _ _ ' Q Q E B 7 & | 0.j.a.d.j.j.j.p.h.u.-.: 1 a Q R H H Q L B 9 % + + + ",
"1 1 1 1 7 q w 9 9 9 9 8 8 < % D 8.h.j.d.a.j.j.y.%.3 = 8 9 r t r 9 9 7 ; % ..e.j.a.d.d.j.j.j.h.u.-.< = 7 9 9 9 r r 9 9 7 6 1 1 1 ",
"a n b b 9 ; % = = % % * @ @ @ D 8.g.a.a.a.a.j.y.%.3 % * * * * % % % * % % ..e.j.a.a.a.a.j.j.j.f.-.< % * % % * * * % & 6 y n a a ",
"R Q E ( t = . . + + + + O + O D 8.g.a.a.a.a.a.p.%.< + . . . . . + + + . + ..e.j.p.p.a.a.j.j.h.f.*.< . O + + O O O . % 6 M Q ! U ",
"U H E ( t ; . . + + + O O O O A 7.h.a.a.a.a.j.p.%.: . . $ $ $ O O +   . + ..e.h.p.p.p.a.d.j.j.f.*.: . O O O O O O . + 6 K ^ U f ",
"f d H E t ; + + . + O O O O O A 7.h.a.a.a.a.j.p.%.: . # # # $ $ $ O   . + ..e.g.p.p.a.a.d.j.j.f.*.: . O O O O # # O + 6 K ^ f f ",
"f U H E y ; + + O + O O O O O A 7.h.j.a.j.j.j.u.%.: . # # # # O O O O O + ..e.h.a.a.a.j.j.p.g.f.*.: . O O O O # $ O + 6 K ^ f f ",
"f U R Q t ; . + + O O O O O O A 7.h.h.j.j.j.g.u.%.: . # # X X O O O O + + ..e.j.d.d.d.j.j.g.g.u.*.: . + O O O $ $ O % 6 K ^ f f ",
"h ! R E t ; . + + + + + O + + D 8.h.g.g.h.h.h.p.%.: O # # # # O O + + + + ..e.j.a.a.j.j.j.j.g.u.-.< + + + + + O $ + % 6 M Q ! U ",
"! ! Q E t ; + + + + . + + + + V 4.r.r.r.r.r.r.e.$.: O O O $ $ O + + + + + ..e.j.a.a.a.j.j.j.h.u.-.< + + + . . + + . % 6 M Q ^ ! ",
"Q Q E E t = o % % + . + + + . 0 ..+.+.#.$.#.$.O.V * + . . . + O + + + + + ..e.j.a.a.a.g.g.j.h.f.-.< + + . . . . . o % 6 M E Q Q ",
"K E C M r = o % % % % % % + + + * - - - - - - - * + + . . % % + + + + + + ..e.j.a.a.a.g.h.h.h.h.-.6 + % % % % % % % % 7 b K E E ",
"9 9 9 9 7 6 6 6 6 4 1 6 6 6 6 ; + . . + + O + + + + * ; 6 6 3 6 6 6 < - % ..e.j.a.a.d.j.j.h.h.f.-.6 % ; 6 6 6 6 6 6 6 7 9 9 9 9 ",
"& & & & 1 p C B b b b b b B B w - + O O     O O + + - c B B N B B m c 6 % ..e.j.a.a.j.j.j.j.h.i.*.6 ; 9 c m M M B B b 7 = % % % ",
"+ . o o 1 c _ ( E E K Q Q Q _ t = + O O O O O + + . ; m ( ( ( ( E _ C 7 % ..e.j.a.d.a.j.a.d.h.i.*.6 1 p E Q Q Q Q Q M 9 % o + + ",
". . . o ; p ( Q Q ^ ! ! U R Q t = + O O O O O   . . 1 b ( / L Q R E M 7 & ..e.j.d.p.p.p.a.a.h.i.*.6 1 b Q ^ U ^ ^ Q F 9 % + + + ",
"  . . . ; p E Q ^ ! ~ h f h R t = + O O # # O   . o 1 b E L H H R Q K 7 & ..e.j.j.p.p.p.a.j.h.k.*.6 1 n ^ U U U ! ! F 9 % + O O ",
"O O . . ; p _ Q U U f f h h R r & + O # # # # O + % 1 a K H H U ! ^ K 7 % { e.j.j.j.g.g.j.j.x.i.*.6 1 a U U f f f H F 9 % + $ $ ",
"O O . . ; c _ Q U f f f f h R r & . O # # # # O + % 1 y K H U f ! ^ K 7 o { q.h.c.j.h.h.j.c.x.k.*.6 1 i U f f f f U F 9 % O $ # ",
"O O + . ; c _ ^ ! f f f f f R t = . O O # # $ O + % 1 b L ^ ! h d Q K 7 & ..q.l.h.h.h.l.l.l.x.l.=.: 1 y U U f f f ! R 9 * + O # ",
"O + + . ; b _ ^ ! U d d d H Q y = . .   O O O O . o 1 b _ ^ ~ h d R K 9 & { 5.r.r.r.r.r.r.r.t.t.&.: ; y ^ U U U ~ ! Q 9 * . O O ",
"+ + . . ; p _ Q Q Q ! R H R Q t = . . . O + + . . o 3 b _ ^ ^ R T E M q * q ..o.o.+.+.o.X.X.@.@.N * 1 b _ L H H H Q E 9 % . . O ",
"% % % o 1 y E B B E _ E E E E r = o o % % % % % o o 3 b ( E H T C C B 8 * % = ; ; 1 1 ; = * * * % % 1 b ( M n B F M M 7 % o % % ",
"7 7 6 6 7 9 9 7 7 9 r 9 9 9 9 9 7 6 6 6 7 6 6 6 6 3 7 q q 9 9 9 8 8 8 - % = 3 7 7 5 7 7 6 6 6 3 ; % = 6 q 7 7 7 9 7 7 7 3 6 7 7 ",
"F F B m r 1 % % % % * * % % & 1 y B B F n a n n M M r ; % % * * @ @ @ + o 3 z F H d d K n b B b 7 % o o % * * % % % % 6 p B K K ",
"Q Q Q E t ; o . . + + + + o o 1 a Q Q ! U H H L Q _ t = o . + + O O O . . 3 K ^ U f U U L K E E q % . . . O O O + + % 6 n Q Q ^ ",
"! R Q E t ; % + + O O O O . . 1 a ^ U f f f U U Q _ t = . $ $ O O O O O . 3 d U f f f U U Q Q K q & o + $ O O O + + % 6 F Q U U ",
"U ! R E t ; % + + O O O O . . 1 a ^ U f f h f U Q _ t = . $ $ O O O O O + 1 d U f f f [ U L Q K e & % $ $ O   O O + % 7 F R U f "
};
